<svg xmlns="http://www.w3.org/2000/svg" xmlns:xlink="http://www.w3.org/1999/xlink" width="500" zoomAndPan="magnify" viewBox="0 0 375 374.999991" height="500" preserveAspectRatio="xMidYMid meet" version="1.0"><defs><clipPath id="c9afbefc10"><path d="M 131.164062 117 L 157 117 L 157 257 L 131.164062 257 Z M 131.164062 117 " clip-rule="nonzero"/></clipPath><clipPath id="21b12df9ca"><path d="M 167 121.164062 L 243.851562 121.164062 L 243.851562 140.664062 L 167 140.664062 Z M 167 121.164062 " clip-rule="nonzero"/></clipPath><clipPath id="c96b8d6ad4"><path d="M 166.644531 159 L 193.644531 159 L 193.644531 254 L 166.644531 254 Z M 166.644531 159 " clip-rule="nonzero"/></clipPath><clipPath id="e2a21609dc"><path d="M 169 158 L 244 158 L 244 178 L 169 178 Z M 169 158 " clip-rule="nonzero"/></clipPath><clipPath id="e812410a55"><path d="M 169.996094 156.582031 L 244.210938 158.839844 L 243.574219 179.832031 L 169.359375 177.574219 Z M 169.996094 156.582031 " clip-rule="nonzero"/></clipPath><clipPath id="a83592273a"><path d="M 169.996094 156.582031 L 244.210938 158.839844 L 243.574219 179.832031 L 169.359375 177.574219 Z M 169.996094 156.582031 " clip-rule="nonzero"/></clipPath></defs><g clip-path="url(#c9afbefc10)"><path fill="#d2d7df" d="M 134.371094 253.347656 C 132.191406 251.472656 131.808594 248.492188 131.652344 245.453125 C 130.746094 228.03125 130.785156 210.574219 130.828125 193.128906 C 130.835938 189.011719 130.847656 184.890625 130.855469 180.773438 C 130.898438 162.457031 130.941406 144.136719 131.5 125.828125 C 131.691406 119.53125 135.238281 117.96875 140.960938 117.710938 C 142.636719 117.636719 144.3125 117.5625 145.988281 117.488281 C 148.3125 117.382812 151.019531 117.566406 152.855469 119.171875 C 157.398438 123.144531 156.042969 136.800781 156.128906 143.371094 C 156.554688 175.417969 156.234375 206.589844 156.65625 238.636719 C 156.703125 242.125 156.738281 245.699219 155.597656 249 C 152.664062 257.511719 143.179688 257.59375 136.023438 254.382812 C 135.382812 254.09375 134.835938 253.746094 134.371094 253.347656 Z M 134.371094 253.347656 " fill-opacity="1" fill-rule="nonzero"/></g><g clip-path="url(#21b12df9ca)"><path fill="#d2d7df" d="M 244.003906 129.539062 C 243.929688 128.449219 243.785156 127.421875 243.652344 126.597656 C 243.527344 125.851562 243.394531 125.074219 242.945312 124.460938 C 242.558594 123.9375 241.980469 123.59375 241.417969 123.261719 C 239.671875 122.234375 236.921875 122.296875 234.933594 122.226562 C 215.890625 121.53125 196.835938 121.597656 177.773438 122.421875 C 174.914062 122.546875 171.78125 122.804688 169.746094 124.8125 C 167.109375 127.414062 166.59375 133.789062 168.679688 136.847656 C 170.355469 139.316406 173.792969 139.6875 176.777344 139.792969 C 195.972656 140.484375 215.144531 140.082031 234.292969 138.589844 C 236.867188 138.386719 239.546875 138.523438 241.785156 137.015625 C 243.894531 135.585938 244.183594 132.34375 244.003906 129.539062 Z M 244.003906 129.539062 " fill-opacity="1" fill-rule="nonzero"/></g><g clip-path="url(#c96b8d6ad4)"><path fill="#d2d7df" d="M 189.824219 160.152344 C 189.183594 159.878906 188.519531 159.683594 187.828125 159.570312 C 184.539062 158.949219 181.179688 159.492188 177.863281 159.832031 C 176.117188 160.011719 174.320312 160.269531 172.890625 161.007812 C 170.6875 162.128906 169.753906 164.128906 169.191406 166.019531 C 168.070312 169.804688 167.902344 173.707031 167.757812 177.582031 C 167.21875 191.855469 166.871094 206.132812 166.714844 220.410156 C 166.621094 229.199219 166.597656 238.011719 168.09375 246.730469 C 168.414062 248.601562 168.917969 250.628906 170.871094 251.894531 C 172.394531 252.882812 174.527344 253.214844 176.566406 253.40625 C 180.015625 253.730469 183.464844 253.765625 186.917969 253.515625 C 188.078125 253.429688 189.285156 253.296875 190.214844 252.796875 C 191.613281 252.042969 191.996094 250.675781 192.238281 249.433594 C 193.652344 242.125 193.566406 234.71875 193.476562 227.339844 L 193.152344 200.28125 L 192.828125 173.082031 C 192.828125 170.484375 192.574219 167.8125 192.347656 165.214844 C 192.230469 163.878906 191.882812 161.671875 190.621094 160.636719 C 190.375 160.441406 190.109375 160.28125 189.824219 160.152344 Z M 189.824219 160.152344 " fill-opacity="1" fill-rule="nonzero"/></g><g clip-path="url(#e2a21609dc)"><g clip-path="url(#e812410a55)"><g clip-path="url(#a83592273a)"><path fill="#d2d7df" d="M 232.414062 158.488281 C 230.597656 158.441406 228.3125 158.390625 225.398438 158.328125 C 210.910156 158.03125 204.089844 158.148438 188.785156 158.960938 C 183.582031 159.238281 178.867188 159.382812 177.429688 159.308594 L 174.972656 159.179688 L 173.558594 159.972656 C 170.726562 161.5625 170.566406 161.867188 170.132812 166.460938 C 169.648438 171.636719 169.9375 173.273438 171.671875 175.203125 C 172.714844 176.363281 173.730469 176.949219 175.21875 177.257812 C 175.835938 177.386719 177.015625 177.472656 177.839844 177.453125 C 178.664062 177.429688 181.507812 177.375 184.160156 177.328125 C 186.808594 177.28125 191.097656 177.171875 193.691406 177.082031 C 196.28125 176.996094 200.476562 176.882812 203.007812 176.832031 C 211.507812 176.671875 218.148438 176.367188 228.511719 175.675781 C 230.449219 175.542969 234.058594 175.082031 238.097656 174.449219 C 238.703125 174.355469 239.597656 174.035156 240.089844 173.738281 C 241.785156 172.707031 243.019531 169.601562 243.65625 164.75 C 243.972656 162.34375 243.96875 162.207031 243.550781 161.277344 C 243.042969 160.140625 242.167969 159.578125 239.992188 158.992188 C 239.355469 158.820312 238.617188 158.714844 236.585938 158.621094 C 235.566406 158.578125 234.226562 158.535156 232.414062 158.488281 Z M 232.414062 158.488281 " fill-opacity="1" fill-rule="nonzero"/></g></g></g></svg>