<svg xmlns="http://www.w3.org/2000/svg" xmlns:xlink="http://www.w3.org/1999/xlink" width="500" zoomAndPan="magnify" viewBox="0 0 375 374.999991" height="500" preserveAspectRatio="xMidYMid meet" version="1.0"><defs><clipPath id="8cffe0e28e"><path d="M 133.5625 117 L 159.8125 117 L 159.8125 257 L 133.5625 257 Z M 133.5625 117 " clip-rule="nonzero"/></clipPath><clipPath id="d42b0387e2"><path d="M 169 121.164062 L 246.246094 121.164062 L 246.246094 140.664062 L 169 140.664062 Z M 169 121.164062 " clip-rule="nonzero"/></clipPath><clipPath id="90e71d52ec"><path d="M 169.042969 159 L 196 159 L 196 254 L 169.042969 254 Z M 169.042969 159 " clip-rule="nonzero"/></clipPath><clipPath id="6f0b697ea1"><path d="M 172 158 L 247 158 L 247 178 L 172 178 Z M 172 158 " clip-rule="nonzero"/></clipPath><clipPath id="706f21da08"><path d="M 172.394531 156.582031 L 246.609375 158.839844 L 245.972656 179.832031 L 171.753906 177.574219 Z M 172.394531 156.582031 " clip-rule="nonzero"/></clipPath><clipPath id="cf43c8a812"><path d="M 172.394531 156.582031 L 246.609375 158.839844 L 245.972656 179.832031 L 171.753906 177.574219 Z M 172.394531 156.582031 " clip-rule="nonzero"/></clipPath></defs><g clip-path="url(#8cffe0e28e)"><path fill="#272727" d="M 136.769531 253.347656 C 134.589844 251.472656 134.207031 248.492188 134.050781 245.453125 C 133.144531 228.03125 133.183594 210.574219 133.226562 193.128906 C 133.234375 189.011719 133.246094 184.890625 133.253906 180.773438 C 133.296875 162.457031 133.339844 144.136719 133.894531 125.828125 C 134.085938 119.53125 137.636719 117.96875 143.355469 117.710938 C 145.03125 117.636719 146.707031 117.5625 148.386719 117.488281 C 150.710938 117.382812 153.417969 117.566406 155.253906 119.171875 C 159.796875 123.144531 158.441406 136.800781 158.527344 143.371094 C 158.953125 175.417969 158.628906 206.589844 159.054688 238.636719 C 159.101562 242.125 159.132812 245.699219 157.996094 249 C 155.0625 257.511719 145.574219 257.59375 138.421875 254.382812 C 137.777344 254.09375 137.234375 253.746094 136.769531 253.347656 Z M 136.769531 253.347656 " fill-opacity="1" fill-rule="nonzero"/></g><g clip-path="url(#d42b0387e2)"><path fill="#272727" d="M 246.402344 129.539062 C 246.328125 128.449219 246.183594 127.421875 246.050781 126.597656 C 245.925781 125.847656 245.792969 125.074219 245.34375 124.460938 C 244.957031 123.9375 244.378906 123.59375 243.816406 123.261719 C 242.070312 122.234375 239.320312 122.296875 237.332031 122.226562 C 218.289062 121.53125 199.234375 121.597656 180.167969 122.421875 C 177.3125 122.546875 174.179688 122.804688 172.144531 124.8125 C 169.507812 127.414062 168.992188 133.789062 171.078125 136.847656 C 172.753906 139.316406 176.191406 139.6875 179.175781 139.792969 C 198.371094 140.484375 217.542969 140.082031 236.691406 138.589844 C 239.261719 138.386719 241.945312 138.523438 244.183594 137.015625 C 246.289062 135.585938 246.582031 132.34375 246.402344 129.539062 Z M 246.402344 129.539062 " fill-opacity="1" fill-rule="nonzero"/></g><g clip-path="url(#90e71d52ec)"><path fill="#272727" d="M 192.222656 160.152344 C 191.582031 159.878906 190.914062 159.683594 190.226562 159.570312 C 186.9375 158.949219 183.578125 159.492188 180.261719 159.832031 C 178.515625 160.011719 176.71875 160.269531 175.289062 161.007812 C 173.085938 162.128906 172.152344 164.128906 171.589844 166.019531 C 170.46875 169.804688 170.300781 173.707031 170.152344 177.582031 C 169.617188 191.855469 169.269531 206.132812 169.113281 220.410156 C 169.015625 229.199219 168.996094 238.011719 170.492188 246.730469 C 170.8125 248.601562 171.316406 250.628906 173.269531 251.894531 C 174.792969 252.882812 176.925781 253.214844 178.964844 253.40625 C 182.414062 253.730469 185.863281 253.765625 189.316406 253.515625 C 190.472656 253.429688 191.683594 253.296875 192.609375 252.796875 C 194.011719 252.042969 194.394531 250.675781 194.636719 249.433594 C 196.046875 242.125 195.964844 234.71875 195.875 227.339844 L 195.550781 200.28125 L 195.226562 173.082031 C 195.226562 170.484375 194.972656 167.8125 194.742188 165.214844 C 194.628906 163.878906 194.277344 161.671875 193.015625 160.636719 C 192.773438 160.441406 192.507812 160.28125 192.222656 160.152344 Z M 192.222656 160.152344 " fill-opacity="1" fill-rule="nonzero"/></g><g clip-path="url(#6f0b697ea1)"><g clip-path="url(#706f21da08)"><g clip-path="url(#cf43c8a812)"><path fill="#272727" d="M 234.808594 158.488281 C 232.996094 158.441406 230.707031 158.390625 227.796875 158.328125 C 213.308594 158.03125 206.488281 158.148438 191.179688 158.960938 C 185.980469 159.238281 181.265625 159.382812 179.828125 159.308594 L 177.371094 159.179688 L 175.957031 159.972656 C 173.125 161.5625 172.960938 161.867188 172.53125 166.460938 C 172.046875 171.636719 172.335938 173.273438 174.070312 175.203125 C 175.113281 176.363281 176.128906 176.949219 177.617188 177.257812 C 178.234375 177.386719 179.414062 177.472656 180.238281 177.453125 C 181.0625 177.429688 183.90625 177.375 186.554688 177.328125 C 189.207031 177.28125 193.496094 177.171875 196.085938 177.082031 C 198.679688 176.996094 202.871094 176.882812 205.40625 176.832031 C 213.90625 176.671875 220.546875 176.367188 230.90625 175.675781 C 232.847656 175.542969 236.457031 175.082031 240.492188 174.449219 C 241.097656 174.355469 241.996094 174.035156 242.488281 173.738281 C 244.183594 172.707031 245.417969 169.601562 246.054688 164.75 C 246.371094 162.34375 246.367188 162.207031 245.949219 161.277344 C 245.4375 160.140625 244.5625 159.578125 242.386719 158.992188 C 241.753906 158.820312 241.015625 158.714844 238.980469 158.621094 C 237.964844 158.578125 236.625 158.535156 234.808594 158.488281 Z M 234.808594 158.488281 " fill-opacity="1" fill-rule="nonzero"/></g></g></g></svg>