<svg xmlns="http://www.w3.org/2000/svg" xmlns:xlink="http://www.w3.org/1999/xlink" width="1366" zoomAndPan="magnify" viewBox="0 0 1024.5 576" height="768" preserveAspectRatio="xMidYMid meet" version="1.0"><defs><clipPath id="b18d4afde7"><path d="M 0 0.140625 L 1024 0.140625 L 1024 575.859375 L 0 575.859375 Z M 0 0.140625 " clip-rule="nonzero"/></clipPath><clipPath id="175ae82e27"><path d="M 708 264.113281 L 715 264.113281 L 715 272 L 708 272 Z M 708 264.113281 " clip-rule="nonzero"/></clipPath><clipPath id="d60c297c94"><path d="M 326 573 L 340 573 L 340 575.859375 L 326 575.859375 Z M 326 573 " clip-rule="nonzero"/></clipPath><clipPath id="4166b1d38c"><path d="M 402 338 L 410 338 L 410 345.570312 L 402 345.570312 Z M 402 338 " clip-rule="nonzero"/></clipPath><clipPath id="9c5853b1d0"><path d="M 857 0.140625 L 866 0.140625 L 866 4 L 857 4 Z M 857 0.140625 " clip-rule="nonzero"/></clipPath></defs><g clip-path="url(#b18d4afde7)"><path fill="#ffffff" d="M 0 0.140625 L 1024 0.140625 L 1024 575.859375 L 0 575.859375 Z M 0 0.140625 " fill-opacity="1" fill-rule="nonzero"/><path fill="#e6e6e6" d="M 0 0.140625 L 1024 0.140625 L 1024 575.859375 L 0 575.859375 Z M 0 0.140625 " fill-opacity="1" fill-rule="nonzero"/></g><g clip-path="url(#175ae82e27)"><path fill="#000000" d="M 710.121094 264.640625 C 709.113281 265.023438 708.203125 267.324219 708.441406 268.714844 C 708.730469 270.34375 709.546875 271.015625 711.367188 271.253906 C 712.46875 271.398438 712.996094 271.160156 713.808594 270.054688 C 715.199219 268.140625 715.105469 266.507812 713.570312 265.3125 C 712.324219 264.304688 711.367188 264.113281 710.121094 264.640625 Z M 710.121094 264.640625 " fill-opacity="1" fill-rule="nonzero"/></g><path fill="#000000" d="M 111.691406 266.507812 C 109.054688 267.613281 107.378906 270.246094 106.660156 274.371094 C 106.371094 275.808594 107.808594 278.828125 109.535156 280.359375 C 113.992188 284.484375 121.324219 283.476562 123.480469 278.394531 C 124.675781 275.710938 124.675781 273.507812 123.625 271.160156 C 122.617188 269.050781 121.324219 267.804688 119.644531 267.371094 C 118.976562 267.179688 118.257812 266.894531 117.96875 266.699219 C 117.058594 266.03125 113.175781 265.886719 111.691406 266.507812 Z M 111.691406 266.507812 " fill-opacity="1" fill-rule="nonzero"/><path fill="#000000" d="M 138.910156 295.554688 C 138.238281 296.226562 138.144531 298.335938 138.8125 298.335938 C 139.199219 298.335938 140.730469 295.890625 140.730469 295.21875 C 140.730469 294.738281 139.484375 294.980469 138.910156 295.554688 Z M 138.910156 295.554688 " fill-opacity="1" fill-rule="nonzero"/><path fill="#000000" d="M 768.773438 322.105469 C 767.769531 323.066406 767.816406 323.878906 768.871094 324.839844 C 770.070312 325.941406 770.738281 325.84375 771.601562 324.503906 C 773.085938 322.25 770.644531 320.238281 768.773438 322.105469 Z M 768.773438 322.105469 " fill-opacity="1" fill-rule="nonzero"/><path fill="#000000" d="M 764.84375 348.753906 C 765.324219 351.152344 767.050781 352.492188 767.671875 350.910156 C 768.105469 349.714844 766.714844 347.222656 765.5625 347.222656 C 764.652344 347.222656 764.558594 347.414062 764.84375 348.753906 Z M 764.84375 348.753906 " fill-opacity="1" fill-rule="nonzero"/><path fill="#000000" d="M 618.207031 354.507812 L 616.050781 356.519531 L 616.195312 359.585938 C 616.292969 362.078125 616.53125 362.847656 617.488281 363.804688 C 618.113281 364.425781 618.832031 364.953125 619.070312 364.953125 C 619.359375 364.953125 620.316406 365.289062 621.226562 365.722656 C 622.714844 366.441406 623.050781 366.488281 624.4375 365.816406 C 626.546875 364.761719 629.039062 362.605469 629.519531 361.359375 C 630.574219 358.628906 627.3125 353.402344 624.246094 352.78125 C 621.277344 352.207031 620.414062 352.445312 618.207031 354.507812 Z M 618.207031 354.507812 " fill-opacity="1" fill-rule="nonzero"/><path fill="#000000" d="M 273.660156 366.96875 C 269.589844 368.023438 266.523438 373.628906 268.34375 376.746094 C 268.628906 377.320312 269.398438 378.613281 269.972656 379.667969 C 271.363281 382.210938 273.949219 382.976562 277.257812 381.875 C 281.664062 380.4375 284.011719 377.800781 284.011719 374.253906 C 284.011719 372.238281 282.046875 368.453125 280.660156 367.832031 C 278.789062 366.96875 275.292969 366.535156 273.660156 366.96875 Z M 273.660156 366.96875 " fill-opacity="1" fill-rule="nonzero"/><path fill="#000000" d="M 593.914062 368.214844 C 592.8125 369.363281 592.667969 369.796875 593.050781 370.753906 C 594.058594 373.101562 594.871094 373.726562 596.5 373.390625 C 597.363281 373.246094 598.320312 372.863281 598.707031 372.574219 C 599.664062 371.761719 599.472656 368.933594 598.371094 367.832031 C 597.027344 366.488281 595.398438 366.632812 593.914062 368.214844 Z M 593.914062 368.214844 " fill-opacity="1" fill-rule="nonzero"/><path fill="#000000" d="M 73.164062 375.355469 C 71.820312 375.738281 68.851562 380.101562 68.851562 381.730469 C 68.851562 385.230469 72.15625 388.632812 76.039062 389.160156 C 78.339844 389.496094 78.675781 389.398438 80.878906 387.914062 C 84.183594 385.613281 85.046875 382.640625 83.371094 379.09375 C 81.886719 375.976562 76.996094 374.207031 73.164062 375.355469 Z M 73.164062 375.355469 " fill-opacity="1" fill-rule="nonzero"/><path fill="#000000" d="M 498.886719 402.769531 C 496.445312 403.871094 495.582031 405.839844 496.300781 408.617188 C 496.828125 410.535156 499.269531 412.882812 500.804688 412.882812 C 502.289062 412.882812 505.164062 411.0625 506.027344 409.625 C 507.082031 407.753906 507.082031 406.316406 505.882812 404.351562 C 504.300781 401.8125 502.144531 401.285156 498.886719 402.769531 Z M 498.886719 402.769531 " fill-opacity="1" fill-rule="nonzero"/><path fill="#000000" d="M 636.324219 407.035156 C 633.734375 407.417969 633.304688 412.019531 635.746094 413.21875 C 637.378906 413.984375 639.484375 413.457031 640.394531 412.117188 C 641.066406 411.109375 641.066406 410.726562 640.492188 409.191406 C 639.773438 407.371094 638.480469 406.699219 636.324219 407.035156 Z M 636.324219 407.035156 " fill-opacity="1" fill-rule="nonzero"/><path fill="#000000" d="M 609.632812 428.554688 C 609.105469 428.652344 608.195312 428.84375 607.617188 428.988281 C 606.230469 429.273438 605.078125 431.480469 605.078125 433.925781 C 605.078125 435.457031 605.367188 436.03125 606.5625 437.039062 C 607.378906 437.710938 608.195312 438.285156 608.335938 438.332031 C 611.929688 438.859375 613.128906 438.429688 614.855469 435.746094 C 616.148438 433.828125 614.949219 429.46875 612.984375 428.988281 C 612.363281 428.84375 611.597656 428.605469 611.210938 428.507812 C 610.878906 428.414062 610.160156 428.414062 609.632812 428.554688 Z M 609.632812 428.554688 " fill-opacity="1" fill-rule="nonzero"/><path fill="#000000" d="M 548.246094 453.527344 C 547.238281 454.246094 546.136719 456.257812 546.136719 457.503906 C 546.136719 459.085938 548.246094 461.292969 549.777344 461.292969 C 553.757812 461.292969 555.722656 457.074219 552.941406 454.4375 C 551.601562 453.191406 549.394531 452.710938 548.246094 453.527344 Z M 548.246094 453.527344 " fill-opacity="1" fill-rule="nonzero"/><path fill="#000000" d="M 387.375 474.757812 C 386.945312 475 386.132812 476.101562 385.554688 477.15625 C 384.167969 479.984375 384.644531 483.816406 386.800781 486.117188 C 388.144531 487.605469 388.574219 487.796875 390.972656 487.84375 C 393.175781 487.84375 393.941406 487.652344 395.332031 486.550781 C 397.390625 484.96875 398.253906 482.570312 397.824219 479.742188 C 397.582031 478.066406 397.105469 477.25 395.570312 475.910156 C 393.796875 474.425781 393.269531 474.230469 390.921875 474.230469 C 389.4375 474.230469 387.855469 474.472656 387.375 474.757812 Z M 387.375 474.757812 " fill-opacity="1" fill-rule="nonzero"/><path fill="#000000" d="M 576.46875 483.914062 C 575.894531 484.203125 575.03125 485.351562 574.601562 486.5 C 573.644531 488.996094 574.265625 491.390625 576.230469 492.972656 C 577.285156 493.785156 577.90625 493.929688 579.824219 493.644531 C 582.890625 493.261719 584.953125 491.246094 584.953125 488.5625 C 584.953125 487.507812 583.273438 484.34375 582.363281 483.722656 C 581.597656 483.195312 577.667969 483.339844 576.46875 483.914062 Z M 576.46875 483.914062 " fill-opacity="1" fill-rule="nonzero"/><path fill="#000000" d="M 674.609375 489.808594 C 672.742188 491.964844 672.695312 493.546875 674.515625 495.367188 C 676.335938 497.191406 677.917969 497.140625 680.074219 495.273438 C 682.328125 493.261719 682.183594 491.054688 679.644531 488.996094 C 678.011719 487.652344 676.289062 487.941406 674.609375 489.808594 Z M 674.609375 489.808594 " fill-opacity="1" fill-rule="nonzero"/><path fill="#000000" d="M 645.425781 510.273438 C 644.707031 510.992188 644.660156 512.910156 645.378906 513.292969 C 646.148438 513.820312 648.0625 513.148438 648.398438 512.289062 C 648.734375 511.425781 647.488281 509.699219 646.53125 509.699219 C 646.242188 509.699219 645.761719 509.9375 645.425781 510.273438 Z M 645.425781 510.273438 " fill-opacity="1" fill-rule="nonzero"/><path fill="#000000" d="M 102.011719 512.671875 C 101.675781 513.007812 101.4375 513.964844 101.4375 514.828125 C 101.4375 516.027344 101.628906 516.410156 102.300781 516.410156 C 103.402344 516.410156 104.503906 513.628906 103.785156 512.71875 C 103.113281 511.953125 102.730469 511.953125 102.011719 512.671875 Z M 102.011719 512.671875 " fill-opacity="1" fill-rule="nonzero"/><path fill="#000000" d="M 314.777344 519.429688 C 312.476562 521.875 314.296875 525.515625 317.84375 525.515625 C 319.714844 525.515625 321.390625 523.695312 321.390625 521.679688 C 321.390625 518.660156 316.933594 517.128906 314.777344 519.429688 Z M 314.777344 519.429688 " fill-opacity="1" fill-rule="nonzero"/><path fill="#000000" d="M 403.574219 527.289062 C 400.84375 528.726562 399.019531 531.125 399.019531 533.28125 C 399.019531 534.71875 400.363281 537.496094 401.511719 538.457031 C 402.757812 539.511719 406.160156 539.703125 408.460938 538.9375 C 412.582031 537.449219 412.488281 530.261719 408.316406 527.527344 C 406.351562 526.28125 405.539062 526.234375 403.574219 527.289062 Z M 403.574219 527.289062 " fill-opacity="1" fill-rule="nonzero"/><path fill="#000000" d="M 285.976562 533.472656 C 284.492188 534.527344 284.78125 536.585938 286.550781 537.402344 C 287.796875 538.023438 288.039062 537.976562 289.042969 537.019531 C 290.386719 535.726562 290.148438 534.335938 288.324219 533.425781 C 287.175781 532.847656 286.886719 532.847656 285.976562 533.472656 Z M 285.976562 533.472656 " fill-opacity="1" fill-rule="nonzero"/><path fill="#000000" d="M 462.277344 544.0625 C 460.933594 544.589844 459.929688 546.316406 460.070312 547.800781 C 460.167969 548.570312 460.261719 549.527344 460.3125 549.816406 C 460.3125 550.152344 460.648438 550.4375 460.984375 550.4375 C 461.316406 550.4375 461.941406 550.871094 462.421875 551.398438 C 463.472656 552.644531 464.144531 552.59375 466.15625 551.253906 C 467.261719 550.488281 467.882812 549.625 468.21875 548.328125 C 468.601562 546.554688 468.554688 546.363281 467.117188 545.070312 C 465.679688 543.777344 463.953125 543.441406 462.277344 544.0625 Z M 462.277344 544.0625 " fill-opacity="1" fill-rule="nonzero"/><path fill="#000000" d="M 437.453125 547.324219 C 435.152344 549.242188 435.058594 552.402344 437.308594 554.128906 C 439.128906 555.519531 443.683594 554.273438 444.355469 552.210938 C 444.785156 550.773438 444.113281 548.042969 443.203125 547.707031 C 442.773438 547.515625 442.199219 547.132812 442.007812 546.75 C 441.382812 545.742188 438.988281 546.03125 437.453125 547.324219 Z M 437.453125 547.324219 " fill-opacity="1" fill-rule="nonzero"/><path fill="#000000" d="M 998.457031 555.664062 C 994.335938 556.527344 992.851562 558.828125 993.136719 563.90625 C 993.328125 566.496094 997.691406 569.417969 1001.8125 569.65625 C 1005.023438 569.851562 1005.691406 569.609375 1007.847656 567.5 C 1010.054688 565.441406 1010.054688 565.390625 1009.527344 563.570312 C 1007.65625 557.003906 1004.109375 554.464844 998.457031 555.664062 Z M 998.457031 555.664062 " fill-opacity="1" fill-rule="nonzero"/><path fill="#000000" d="M 138.046875 556.621094 C 135.9375 557.148438 135.554688 557.484375 134.691406 559.449219 C 133.640625 562.039062 134.164062 564.289062 136.273438 565.871094 C 139.53125 568.363281 142.933594 567.40625 144.566406 563.570312 C 145.425781 561.558594 145.425781 561.460938 144.566406 559.640625 C 144.085938 558.632812 143.367188 557.582031 143.03125 557.292969 C 142.121094 556.527344 139.726562 556.238281 138.046875 556.621094 Z M 138.046875 556.621094 " fill-opacity="1" fill-rule="nonzero"/><path fill="#000000" d="M 870.414062 557.148438 C 868.785156 558.441406 868.738281 560.167969 870.316406 561.703125 C 871.804688 563.234375 873.144531 563.234375 874.679688 561.652344 C 877.554688 558.828125 873.578125 554.65625 870.414062 557.148438 Z M 870.414062 557.148438 " fill-opacity="1" fill-rule="nonzero"/><path fill="#000000" d="M 770.117188 558.828125 C 769.300781 560.121094 769.542969 562.324219 770.546875 562.996094 C 771.601562 563.667969 773.613281 563.378906 774.382812 562.515625 C 775.339844 561.460938 775.433594 559.019531 774.621094 558.203125 C 773.566406 557.148438 770.980469 557.484375 770.117188 558.828125 Z M 770.117188 558.828125 " fill-opacity="1" fill-rule="nonzero"/><g clip-path="url(#d60c297c94)"><path fill="#000000" d="M 331.453125 573.78125 C 330.253906 574.210938 327.574219 576.941406 327.09375 578.140625 C 325.941406 581.066406 328.722656 585.042969 332.363281 585.667969 C 335.816406 586.242188 339.550781 583.367188 339.601562 580.105469 C 339.601562 578.191406 338.59375 575.363281 337.585938 574.5 C 336.820312 573.875 332.460938 573.347656 331.453125 573.78125 Z M 331.453125 573.78125 " fill-opacity="1" fill-rule="nonzero"/></g><g clip-path="url(#4166b1d38c)"><path fill="#000000" d="M 407.328125 345.042969 C 408.332031 344.660156 409.242188 342.359375 409.003906 340.972656 C 408.714844 339.339844 407.902344 338.671875 406.082031 338.429688 C 404.976562 338.285156 404.453125 338.527344 403.636719 339.628906 C 402.246094 341.546875 402.34375 343.175781 403.875 344.375 C 405.121094 345.378906 406.082031 345.570312 407.328125 345.042969 Z M 407.328125 345.042969 " fill-opacity="1" fill-rule="nonzero"/></g><path fill="#000000" d="M 1005.753906 343.175781 C 1008.390625 342.074219 1010.066406 339.4375 1010.785156 335.316406 C 1011.074219 333.878906 1009.636719 330.859375 1007.910156 329.324219 C 1003.457031 325.203125 996.125 326.207031 993.96875 331.289062 C 992.769531 333.972656 992.769531 336.179688 993.824219 338.527344 C 994.828125 340.636719 996.125 341.882812 997.800781 342.3125 C 998.472656 342.503906 999.191406 342.792969 999.476562 342.984375 C 1000.386719 343.65625 1004.269531 343.796875 1005.753906 343.175781 Z M 1005.753906 343.175781 " fill-opacity="1" fill-rule="nonzero"/><path fill="#000000" d="M 978.535156 314.128906 C 979.207031 313.460938 979.304688 311.351562 978.632812 311.351562 C 978.25 311.351562 976.714844 313.796875 976.714844 314.464844 C 976.714844 314.945312 977.960938 314.707031 978.535156 314.128906 Z M 978.535156 314.128906 " fill-opacity="1" fill-rule="nonzero"/><path fill="#000000" d="M 348.671875 287.578125 C 349.679688 286.621094 349.628906 285.804688 348.578125 284.847656 C 347.378906 283.742188 346.707031 283.839844 345.84375 285.183594 C 344.359375 287.433594 346.804688 289.449219 348.671875 287.578125 Z M 348.671875 287.578125 " fill-opacity="1" fill-rule="nonzero"/><path fill="#000000" d="M 352.601562 260.929688 C 352.121094 258.535156 350.398438 257.191406 349.773438 258.773438 C 349.34375 259.972656 350.734375 262.464844 351.882812 262.464844 C 352.792969 262.464844 352.890625 262.273438 352.601562 260.929688 Z M 352.601562 260.929688 " fill-opacity="1" fill-rule="nonzero"/><path fill="#000000" d="M 499.238281 255.179688 L 501.394531 253.164062 L 501.25 250.097656 C 501.15625 247.605469 500.914062 246.839844 499.957031 245.878906 C 499.332031 245.257812 498.613281 244.730469 498.375 244.730469 C 498.085938 244.730469 497.128906 244.394531 496.21875 243.964844 C 494.734375 243.246094 494.398438 243.195312 493.007812 243.867188 C 490.898438 244.921875 488.40625 247.078125 487.929688 248.324219 C 486.875 251.058594 490.132812 256.28125 493.199219 256.902344 C 496.171875 257.480469 497.035156 257.238281 499.238281 255.179688 Z M 499.238281 255.179688 " fill-opacity="1" fill-rule="nonzero"/><path fill="#000000" d="M 843.785156 242.71875 C 847.859375 241.664062 850.925781 236.054688 849.105469 232.941406 C 848.816406 232.363281 848.050781 231.070312 847.472656 230.015625 C 846.085938 227.476562 843.496094 226.707031 840.191406 227.8125 C 835.78125 229.25 833.433594 231.886719 833.433594 235.433594 C 833.433594 237.445312 835.398438 241.230469 836.789062 241.855469 C 838.65625 242.71875 842.15625 243.148438 843.785156 242.71875 Z M 843.785156 242.71875 " fill-opacity="1" fill-rule="nonzero"/><path fill="#000000" d="M 523.535156 241.472656 C 524.636719 240.320312 524.777344 239.890625 524.394531 238.929688 C 523.390625 236.582031 522.574219 235.960938 520.945312 236.292969 C 520.082031 236.4375 519.125 236.820312 518.742188 237.109375 C 517.78125 237.925781 517.972656 240.753906 519.078125 241.855469 C 520.417969 243.195312 522.046875 243.050781 523.535156 241.472656 Z M 523.535156 241.472656 " fill-opacity="1" fill-rule="nonzero"/><path fill="#000000" d="M 618.558594 206.914062 C 621.003906 205.8125 621.867188 203.847656 621.148438 201.066406 C 620.621094 199.148438 618.175781 196.800781 616.640625 196.800781 C 615.15625 196.800781 612.28125 198.621094 611.417969 200.0625 C 610.363281 201.929688 610.363281 203.367188 611.5625 205.332031 C 613.144531 207.871094 615.300781 208.398438 618.558594 206.914062 Z M 618.558594 206.914062 " fill-opacity="1" fill-rule="nonzero"/><path fill="#000000" d="M 481.125 202.648438 C 483.710938 202.265625 484.144531 197.664062 481.699219 196.464844 C 480.070312 195.699219 477.960938 196.226562 477.050781 197.566406 C 476.378906 198.574219 476.378906 198.957031 476.953125 200.492188 C 477.671875 202.3125 478.96875 202.984375 481.125 202.648438 Z M 481.125 202.648438 " fill-opacity="1" fill-rule="nonzero"/><path fill="#000000" d="M 507.816406 181.128906 C 508.34375 181.03125 509.253906 180.839844 509.828125 180.699219 C 511.21875 180.410156 512.367188 178.207031 512.367188 175.761719 C 512.367188 174.226562 512.082031 173.652344 510.882812 172.644531 C 510.066406 171.972656 509.253906 171.398438 509.109375 171.351562 C 505.515625 170.824219 504.316406 171.253906 502.59375 173.941406 C 501.296875 175.855469 502.496094 180.21875 504.460938 180.699219 C 505.082031 180.839844 505.851562 181.082031 506.234375 181.175781 C 506.570312 181.273438 507.289062 181.273438 507.816406 181.128906 Z M 507.816406 181.128906 " fill-opacity="1" fill-rule="nonzero"/><path fill="#000000" d="M 569.203125 156.15625 C 570.207031 155.4375 571.308594 153.425781 571.308594 152.179688 C 571.308594 150.597656 569.203125 148.394531 567.667969 148.394531 C 563.691406 148.394531 561.726562 152.609375 564.503906 155.246094 C 565.847656 156.492188 568.050781 156.972656 569.203125 156.15625 Z M 569.203125 156.15625 " fill-opacity="1" fill-rule="nonzero"/><path fill="#000000" d="M 730.070312 134.925781 C 730.5 134.6875 731.316406 133.582031 731.890625 132.527344 C 733.28125 129.703125 732.800781 125.867188 730.644531 123.566406 C 729.304688 122.082031 728.871094 121.890625 726.476562 121.839844 C 724.269531 121.839844 723.503906 122.03125 722.113281 123.136719 C 720.054688 124.714844 719.191406 127.113281 719.625 129.941406 C 719.863281 131.617188 720.34375 132.433594 721.875 133.773438 C 723.648438 135.261719 724.175781 135.453125 726.523438 135.453125 C 728.007812 135.453125 729.589844 135.214844 730.070312 134.925781 Z M 730.070312 134.925781 " fill-opacity="1" fill-rule="nonzero"/><path fill="#000000" d="M 540.976562 125.769531 C 541.550781 125.484375 542.414062 124.332031 542.84375 123.183594 C 543.804688 120.691406 543.179688 118.292969 541.214844 116.710938 C 540.160156 115.898438 539.539062 115.753906 537.621094 116.042969 C 534.554688 116.425781 532.496094 118.4375 532.496094 121.121094 C 532.496094 122.175781 534.171875 125.339844 535.082031 125.960938 C 535.847656 126.488281 539.777344 126.347656 540.976562 125.769531 Z M 540.976562 125.769531 " fill-opacity="1" fill-rule="nonzero"/><path fill="#000000" d="M 442.835938 119.875 C 444.703125 117.71875 444.753906 116.136719 442.929688 114.316406 C 441.109375 112.496094 439.527344 112.542969 437.371094 114.410156 C 435.121094 116.425781 435.265625 118.628906 437.804688 120.691406 C 439.433594 122.03125 441.160156 121.746094 442.835938 119.875 Z M 442.835938 119.875 " fill-opacity="1" fill-rule="nonzero"/><path fill="#000000" d="M 472.019531 99.410156 C 472.738281 98.691406 472.785156 96.773438 472.066406 96.390625 C 471.300781 95.863281 469.382812 96.535156 469.046875 97.398438 C 468.710938 98.261719 469.957031 99.984375 470.917969 99.984375 C 471.203125 99.984375 471.683594 99.746094 472.019531 99.410156 Z M 472.019531 99.410156 " fill-opacity="1" fill-rule="nonzero"/><path fill="#000000" d="M 1015.433594 97.015625 C 1015.769531 96.679688 1016.011719 95.71875 1016.011719 94.855469 C 1016.011719 93.660156 1015.820312 93.277344 1015.148438 93.277344 C 1014.046875 93.277344 1012.945312 96.054688 1013.664062 96.964844 C 1014.332031 97.734375 1014.714844 97.734375 1015.433594 97.015625 Z M 1015.433594 97.015625 " fill-opacity="1" fill-rule="nonzero"/><path fill="#000000" d="M 802.667969 90.257812 C 804.96875 87.8125 803.148438 84.167969 799.601562 84.167969 C 797.734375 84.167969 796.054688 85.992188 796.054688 88.003906 C 796.054688 91.023438 800.511719 92.554688 802.667969 90.257812 Z M 802.667969 90.257812 " fill-opacity="1" fill-rule="nonzero"/><path fill="#000000" d="M 713.871094 82.394531 C 716.605469 80.957031 718.425781 78.5625 718.425781 76.40625 C 718.425781 74.964844 717.082031 72.1875 715.933594 71.226562 C 714.6875 70.175781 711.285156 69.980469 708.984375 70.75 C 704.863281 72.234375 704.960938 79.425781 709.128906 82.15625 C 711.09375 83.402344 711.90625 83.449219 713.871094 82.394531 Z M 713.871094 82.394531 " fill-opacity="1" fill-rule="nonzero"/><path fill="#000000" d="M 831.46875 76.214844 C 832.953125 75.160156 832.667969 73.097656 830.894531 72.28125 C 829.648438 71.660156 829.410156 71.707031 828.402344 72.667969 C 827.058594 73.960938 827.300781 75.351562 829.121094 76.261719 C 830.269531 76.835938 830.558594 76.835938 831.46875 76.214844 Z M 831.46875 76.214844 " fill-opacity="1" fill-rule="nonzero"/><path fill="#000000" d="M 655.171875 65.621094 C 656.511719 65.09375 657.519531 63.367188 657.375 61.882812 C 657.277344 61.117188 657.183594 60.15625 657.136719 59.871094 C 657.136719 59.535156 656.800781 59.246094 656.464844 59.246094 C 656.128906 59.246094 655.503906 58.816406 655.027344 58.289062 C 653.972656 57.042969 653.300781 57.089844 651.289062 58.429688 C 650.1875 59.199219 649.5625 60.0625 649.226562 61.355469 C 648.84375 63.128906 648.894531 63.320312 650.332031 64.613281 C 651.769531 65.910156 653.492188 66.242188 655.171875 65.621094 Z M 655.171875 65.621094 " fill-opacity="1" fill-rule="nonzero"/><path fill="#000000" d="M 679.992188 62.363281 C 682.292969 60.445312 682.390625 57.28125 680.136719 55.554688 C 678.316406 54.164062 673.761719 55.410156 673.09375 57.472656 C 672.660156 58.910156 673.332031 61.644531 674.242188 61.976562 C 674.675781 62.167969 675.25 62.554688 675.441406 62.9375 C 676.0625 63.941406 678.460938 63.65625 679.992188 62.363281 Z M 679.992188 62.363281 " fill-opacity="1" fill-rule="nonzero"/><path fill="#000000" d="M 118.988281 54.023438 C 123.109375 53.160156 124.597656 50.859375 124.308594 45.777344 C 124.117188 43.191406 119.757812 40.265625 115.636719 40.027344 C 112.425781 39.835938 111.753906 40.074219 109.597656 42.183594 C 107.394531 44.246094 107.394531 44.292969 107.921875 46.113281 C 109.789062 52.679688 113.335938 55.21875 118.988281 54.023438 Z M 118.988281 54.023438 " fill-opacity="1" fill-rule="nonzero"/><path fill="#000000" d="M 979.398438 53.0625 C 981.507812 52.535156 981.890625 52.199219 982.753906 50.234375 C 983.808594 47.648438 983.28125 45.394531 981.171875 43.8125 C 977.914062 41.320312 974.511719 42.28125 972.882812 46.113281 C 972.019531 48.125 972.019531 48.222656 972.882812 50.042969 C 973.359375 51.050781 974.078125 52.105469 974.414062 52.390625 C 975.324219 53.160156 977.722656 53.445312 979.398438 53.0625 Z M 979.398438 53.0625 " fill-opacity="1" fill-rule="nonzero"/><path fill="#000000" d="M 247.03125 52.535156 C 248.664062 51.242188 248.710938 49.515625 247.128906 47.984375 C 245.644531 46.449219 244.300781 46.449219 242.769531 48.03125 C 239.894531 50.859375 243.871094 55.027344 247.03125 52.535156 Z M 247.03125 52.535156 " fill-opacity="1" fill-rule="nonzero"/><path fill="#000000" d="M 347.332031 50.859375 C 348.144531 49.566406 347.90625 47.359375 346.898438 46.6875 C 345.84375 46.019531 343.832031 46.304688 343.066406 47.167969 C 342.105469 48.222656 342.011719 50.667969 342.824219 51.480469 C 343.878906 52.535156 346.46875 52.199219 347.332031 50.859375 Z M 347.332031 50.859375 " fill-opacity="1" fill-rule="nonzero"/><path fill="#000000" d="M 785.992188 35.90625 C 787.191406 35.472656 789.875 32.742188 790.355469 31.542969 C 791.503906 28.621094 788.722656 24.640625 785.082031 24.019531 C 781.632812 23.445312 777.894531 26.320312 777.847656 29.578125 C 777.847656 31.496094 778.851562 34.324219 779.859375 35.1875 C 780.625 35.808594 784.988281 36.335938 785.992188 35.90625 Z M 785.992188 35.90625 " fill-opacity="1" fill-rule="nonzero"/><path fill="#000000" d="M 296.628906 30.730469 C 298.066406 28.90625 297.492188 27.277344 295.242188 26.558594 C 293.515625 26.078125 293.277344 26.128906 292.222656 27.085938 C 291.214844 28.042969 291.121094 28.378906 291.550781 29.578125 C 292.414062 32.117188 295.097656 32.695312 296.628906 30.730469 Z M 296.628906 30.730469 " fill-opacity="1" fill-rule="nonzero"/><path fill="#000000" d="M 837.601562 27.660156 C 839.617188 26.414062 840.144531 25.265625 839.808594 23.011719 C 839.472656 20.617188 838.992188 20.089844 836.835938 19.417969 C 835.304688 18.9375 834.777344 19.035156 833.050781 19.898438 C 830.75 21.09375 830.703125 21.144531 830.269531 23.636719 C 830.03125 25.21875 830.175781 25.742188 831.132812 26.847656 C 832.621094 28.621094 835.496094 29.003906 837.601562 27.660156 Z M 837.601562 27.660156 " fill-opacity="1" fill-rule="nonzero"/><path fill="#000000" d="M 762.414062 19.847656 C 762.75 19.511719 762.992188 18.265625 762.992188 17.070312 C 762.992188 15.152344 762.75 14.671875 761.171875 13.140625 C 760.210938 12.226562 758.964844 11.316406 758.488281 11.125 C 757.191406 10.695312 755.324219 12.035156 755.324219 13.425781 C 755.324219 14.960938 756.617188 18.027344 757.863281 19.371094 C 758.964844 20.519531 761.457031 20.808594 762.414062 19.847656 Z M 762.414062 19.847656 " fill-opacity="1" fill-rule="nonzero"/><g clip-path="url(#9c5853b1d0)"><path fill="#000000" d="M 863.480469 2.691406 C 865.15625 1.683594 865.972656 -0.328125 865.207031 -1.574219 C 864.917969 -2.007812 863.910156 -2.773438 862.953125 -3.300781 C 861.179688 -4.210938 861.179688 -4.210938 859.453125 -3.300781 C 857.15625 -2.054688 856.628906 -0.808594 857.585938 1.394531 C 858.113281 2.785156 858.59375 3.167969 859.503906 3.167969 C 860.125 3.167969 860.941406 3.265625 861.324219 3.410156 C 861.660156 3.554688 862.664062 3.21875 863.480469 2.691406 Z M 863.480469 2.691406 " fill-opacity="1" fill-rule="nonzero"/></g></svg>