<?xml version="1.0" encoding="UTF-8"?>
<!DOCTYPE svg PUBLIC "-//W3C//DTD SVG 1.1//EN" "http://www.w3.org/Graphics/SVG/1.1/DTD/svg11.dtd">
<svg xmlns="http://www.w3.org/2000/svg" version="1.1" width="1563px" height="1563px" style="shape-rendering:geometricPrecision; text-rendering:geometricPrecision; image-rendering:optimizeQuality; fill-rule:evenodd; clip-rule:evenodd" xmlns:xlink="http://www.w3.org/1999/xlink">
<g><path style="opacity:0.922" fill="#000000" d="M 1327.5,19.5 C 1336.03,17.6228 1340.36,20.9562 1340.5,29.5C 1338.1,36.6947 1338.1,43.8614 1340.5,51C 1337.71,65.3106 1336.21,79.8106 1336,94.5C 1334.71,97.5964 1334.87,100.763 1336.5,104C 1335.35,107.136 1334.35,110.302 1333.5,113.5C 1334.97,117.607 1336.3,121.774 1337.5,126C 1336.76,133.143 1336.26,140.309 1336,147.5C 1332.09,154.096 1327.09,155.096 1321,150.5C 1320.83,146 1320.67,141.5 1320.5,137C 1320.99,120.513 1321.15,104.013 1321,87.5C 1321.71,85.9194 1322.54,84.4194 1323.5,83C 1321.36,80.3847 1320.36,77.3847 1320.5,74C 1321.26,59.1798 1321.76,44.3464 1322,29.5C 1323.38,25.8359 1325.21,22.5026 1327.5,19.5 Z"/></g>
<g><path style="opacity:0.933" fill="#000000" d="M 1505.5,53.5 C 1510.58,53.2497 1515.58,53.7497 1520.5,55C 1521.87,56.2419 1522.87,57.7419 1523.5,59.5C 1522.84,62.9919 1521.51,66.1586 1519.5,69C 1514.91,70.8637 1510.24,72.5304 1505.5,74C 1498.91,80.1018 1496.74,87.6018 1499,96.5C 1499.69,99.0573 1501.19,100.891 1503.5,102C 1511.18,102.514 1518.85,103.181 1526.5,104C 1527,104.5 1527.5,105 1528,105.5C 1528.36,108.525 1528.86,111.525 1529.5,114.5C 1529.12,116.383 1528.12,117.883 1526.5,119C 1518.17,119.333 1509.83,119.667 1501.5,120C 1500.67,120.833 1499.83,121.667 1499,122.5C 1498.17,145.829 1497.5,169.162 1497,192.5C 1493.68,198.608 1489.01,199.941 1483,196.5C 1482.67,193.833 1482.33,191.167 1482,188.5C 1481.96,152.168 1482.3,115.835 1483,79.5C 1485.25,71.1683 1489.41,64.0016 1495.5,58C 1498.89,56.38 1502.23,54.88 1505.5,53.5 Z"/></g>
<g><path style="opacity:0.926" fill="#000000" d="M 81.5,56.5 C 86.5111,56.3341 91.5111,56.5007 96.5,57C 102.631,59.1633 108.964,60.4966 115.5,61C 117.81,62.6374 119.31,64.804 120,67.5C 120.667,78.1667 120.667,88.8333 120,99.5C 119.062,102.812 118.229,106.145 117.5,109.5C 123.711,136.215 121.544,162.215 111,187.5C 106.798,191.367 102.965,195.533 99.5,200C 95.1036,202.366 90.4369,203.866 85.5,204.5C 78.2726,203.443 71.2726,201.61 64.5,199C 56.9546,193.737 52.6213,186.571 51.5,177.5C 51.2492,173.497 52.9158,170.664 56.5,169C 58.8333,168.333 61.1667,168.333 63.5,169C 66.8954,174.436 70.562,179.769 74.5,185C 79.0466,186.545 83.7133,186.879 88.5,186C 94.2029,181.635 98.3696,176.135 101,169.5C 101.123,162.67 102.123,156.004 104,149.5C 104.667,144.5 104.667,139.5 104,134.5C 103.586,134.043 103.086,133.709 102.5,133.5C 86.759,143.318 72.9257,140.985 61,126.5C 49.5426,102.546 53.0426,81.0464 71.5,62C 75.0561,60.3924 78.3894,58.5591 81.5,56.5 Z M 86.5,72.5 C 88.5273,72.3379 90.5273,72.5045 92.5,73C 96.1667,75.3333 99.8333,77.6667 103.5,80C 104.127,81.7378 104.46,83.5711 104.5,85.5C 103.226,92.8085 102.06,100.142 101,107.5C 97.7838,114.673 92.7838,120.006 86,123.5C 75.5134,120.854 70.0134,114.188 69.5,103.5C 70.605,94.7463 73.105,86.413 77,78.5C 79.8426,75.8373 83.0093,73.8373 86.5,72.5 Z"/></g>
<g><path style="opacity:0.924" fill="#000000" d="M -0.5,141.5 C -0.5,131.167 -0.5,120.833 -0.5,110.5C 1.16853,115.311 3.3352,119.978 6,124.5C 12.2503,131.004 17.917,130.337 23,122.5C 31.4088,106.401 29.2421,91.901 16.5,79C 10.8433,74.9218 5.17662,74.7551 -0.5,78.5C -0.5,72.1667 -0.5,65.8333 -0.5,59.5C 0.915003,58.7106 2.415,58.0439 4,57.5C 35.2932,64.1671 48.6265,83.5004 44,115.5C 40.641,125.729 35.141,134.562 27.5,142C 18.0255,149.315 8.69214,149.148 -0.5,141.5 Z"/></g>
<g><path style="opacity:0.922" fill="#000000" d="M 1386.5,57.5 C 1395.1,59.8827 1402.6,64.216 1409,70.5C 1415.33,79.5337 1414.83,88.2004 1407.5,96.5C 1402.5,99 1397.5,101.5 1392.5,104C 1385.13,104.313 1377.8,104.98 1370.5,106C 1367,109.929 1366.84,114.095 1370,118.5C 1374.13,126.567 1380.79,130.233 1390,129.5C 1396.57,128.709 1403.07,127.876 1409.5,127C 1418.17,134.766 1417.17,140.433 1406.5,144C 1386.9,150.687 1370.4,146.187 1357,130.5C 1352.25,123.008 1350.42,114.842 1351.5,106C 1351.41,93.6058 1354.58,82.1058 1361,71.5C 1365.44,68.6974 1369.6,65.5307 1373.5,62C 1378.1,60.943 1382.43,59.443 1386.5,57.5 Z M 1382.5,72.5 C 1387.54,71.4308 1391.38,73.0974 1394,77.5C 1394.71,79.9712 1394.37,82.3046 1393,84.5C 1385.94,89.0885 1378.44,90.5885 1370.5,89C 1373.21,82.475 1377.21,76.975 1382.5,72.5 Z"/></g>
<g><path style="opacity:0.927" fill="#000000" d="M 1562.5,57.5 C 1562.5,63.8333 1562.5,70.1667 1562.5,76.5C 1560.28,77.2026 1558.45,78.5359 1557,80.5C 1555.77,85.8192 1554.6,91.1525 1553.5,96.5C 1556.53,104.604 1559.53,112.604 1562.5,120.5C 1562.5,128.5 1562.5,136.5 1562.5,144.5C 1556.93,141.765 1552.43,137.765 1549,132.5C 1542.25,121.022 1538.42,108.689 1537.5,95.5C 1536.98,84.9019 1540.31,75.7352 1547.5,68C 1551.35,65.2392 1555.02,62.2392 1558.5,59C 1559.74,58.2086 1561.08,57.7086 1562.5,57.5 Z"/></g>
<g><path style="opacity:0.922" fill="#000000" d="M 1327.5,170.5 C 1336.03,168.623 1340.36,171.956 1340.5,180.5C 1338.1,187.695 1338.1,194.861 1340.5,202C 1337.71,216.311 1336.21,230.811 1336,245.5C 1334.71,248.596 1334.87,251.763 1336.5,255C 1335.35,258.136 1334.35,261.302 1333.5,264.5C 1334.97,268.607 1336.3,272.774 1337.5,277C 1336.76,284.143 1336.26,291.309 1336,298.5C 1332.09,305.096 1327.09,306.096 1321,301.5C 1320.83,297 1320.67,292.5 1320.5,288C 1320.99,271.513 1321.15,255.013 1321,238.5C 1321.71,236.919 1322.54,235.419 1323.5,234C 1321.36,231.385 1320.36,228.385 1320.5,225C 1321.26,210.18 1321.76,195.346 1322,180.5C 1323.38,176.836 1325.21,173.503 1327.5,170.5 Z"/></g>
<g><path style="opacity:0.933" fill="#000000" d="M 1505.5,204.5 C 1510.58,204.25 1515.58,204.75 1520.5,206C 1521.87,207.242 1522.87,208.742 1523.5,210.5C 1522.84,213.992 1521.51,217.159 1519.5,220C 1514.91,221.864 1510.24,223.53 1505.5,225C 1498.91,231.102 1496.74,238.602 1499,247.5C 1499.69,250.057 1501.19,251.891 1503.5,253C 1511.18,253.514 1518.85,254.181 1526.5,255C 1527,255.5 1527.5,256 1528,256.5C 1528.36,259.525 1528.86,262.525 1529.5,265.5C 1529.12,267.383 1528.12,268.883 1526.5,270C 1518.17,270.333 1509.83,270.667 1501.5,271C 1500.67,271.833 1499.83,272.667 1499,273.5C 1498.17,296.829 1497.5,320.162 1497,343.5C 1493.68,349.608 1489.01,350.941 1483,347.5C 1482.67,344.833 1482.33,342.167 1482,339.5C 1481.96,303.168 1482.3,266.835 1483,230.5C 1485.25,222.168 1489.41,215.002 1495.5,209C 1498.89,207.38 1502.23,205.88 1505.5,204.5 Z"/></g>
<g><path style="opacity:0.926" fill="#000000" d="M 81.5,207.5 C 86.5111,207.334 91.5111,207.501 96.5,208C 102.631,210.163 108.964,211.497 115.5,212C 117.81,213.637 119.31,215.804 120,218.5C 120.667,229.167 120.667,239.833 120,250.5C 119.062,253.812 118.229,257.145 117.5,260.5C 123.711,287.215 121.544,313.215 111,338.5C 106.798,342.367 102.965,346.533 99.5,351C 95.1036,353.366 90.4369,354.866 85.5,355.5C 78.2726,354.443 71.2726,352.61 64.5,350C 56.9546,344.737 52.6213,337.571 51.5,328.5C 51.2492,324.497 52.9158,321.664 56.5,320C 58.8333,319.333 61.1667,319.333 63.5,320C 66.8954,325.436 70.562,330.769 74.5,336C 79.0466,337.545 83.7133,337.879 88.5,337C 94.2029,332.635 98.3696,327.135 101,320.5C 101.123,313.67 102.123,307.004 104,300.5C 104.667,295.5 104.667,290.5 104,285.5C 103.586,285.043 103.086,284.709 102.5,284.5C 86.759,294.318 72.9257,291.985 61,277.5C 49.5426,253.546 53.0426,232.046 71.5,213C 75.0561,211.392 78.3894,209.559 81.5,207.5 Z M 86.5,223.5 C 88.5273,223.338 90.5273,223.505 92.5,224C 96.1667,226.333 99.8333,228.667 103.5,231C 104.127,232.738 104.46,234.571 104.5,236.5C 103.226,243.808 102.06,251.142 101,258.5C 97.7838,265.673 92.7838,271.006 86,274.5C 75.5134,271.854 70.0134,265.188 69.5,254.5C 70.605,245.746 73.105,237.413 77,229.5C 79.8426,226.837 83.0093,224.837 86.5,223.5 Z"/></g>
<g><path style="opacity:0.924" fill="#000000" d="M -0.5,292.5 C -0.5,282.167 -0.5,271.833 -0.5,261.5C 1.16853,266.311 3.3352,270.978 6,275.5C 12.2503,282.004 17.917,281.337 23,273.5C 31.4088,257.401 29.2421,242.901 16.5,230C 10.8433,225.922 5.17662,225.755 -0.5,229.5C -0.5,223.167 -0.5,216.833 -0.5,210.5C 0.915003,209.711 2.415,209.044 4,208.5C 35.2932,215.167 48.6265,234.5 44,266.5C 40.641,276.729 35.141,285.562 27.5,293C 18.0255,300.315 8.69214,300.148 -0.5,292.5 Z"/></g>
<g><path style="opacity:0.922" fill="#000000" d="M 1386.5,208.5 C 1395.1,210.883 1402.6,215.216 1409,221.5C 1415.33,230.534 1414.83,239.2 1407.5,247.5C 1402.5,250 1397.5,252.5 1392.5,255C 1385.13,255.313 1377.8,255.98 1370.5,257C 1367,260.929 1366.84,265.095 1370,269.5C 1374.13,277.567 1380.79,281.233 1390,280.5C 1396.57,279.709 1403.07,278.876 1409.5,278C 1418.17,285.766 1417.17,291.433 1406.5,295C 1386.9,301.687 1370.4,297.187 1357,281.5C 1352.25,274.008 1350.42,265.842 1351.5,257C 1351.41,244.606 1354.58,233.106 1361,222.5C 1365.44,219.697 1369.6,216.531 1373.5,213C 1378.1,211.943 1382.43,210.443 1386.5,208.5 Z M 1382.5,223.5 C 1387.54,222.431 1391.38,224.097 1394,228.5C 1394.71,230.971 1394.37,233.305 1393,235.5C 1385.94,240.088 1378.44,241.588 1370.5,240C 1373.21,233.475 1377.21,227.975 1382.5,223.5 Z"/></g>
<g><path style="opacity:0.927" fill="#000000" d="M 1562.5,208.5 C 1562.5,214.833 1562.5,221.167 1562.5,227.5C 1560.28,228.203 1558.45,229.536 1557,231.5C 1555.77,236.819 1554.6,242.153 1553.5,247.5C 1556.53,255.604 1559.53,263.604 1562.5,271.5C 1562.5,279.5 1562.5,287.5 1562.5,295.5C 1556.93,292.765 1552.43,288.765 1549,283.5C 1542.25,272.022 1538.42,259.689 1537.5,246.5C 1536.98,235.902 1540.31,226.735 1547.5,219C 1551.35,216.239 1555.02,213.239 1558.5,210C 1559.74,209.209 1561.08,208.709 1562.5,208.5 Z"/></g>
<g><path style="opacity:0.922" fill="#000000" d="M 1327.5,319.5 C 1336.03,317.623 1340.36,320.956 1340.5,329.5C 1338.1,336.695 1338.1,343.861 1340.5,351C 1337.71,365.311 1336.21,379.811 1336,394.5C 1334.71,397.596 1334.87,400.763 1336.5,404C 1335.35,407.136 1334.35,410.302 1333.5,413.5C 1334.97,417.607 1336.3,421.774 1337.5,426C 1336.76,433.143 1336.26,440.309 1336,447.5C 1332.09,454.096 1327.09,455.096 1321,450.5C 1320.83,446 1320.67,441.5 1320.5,437C 1320.99,420.513 1321.15,404.013 1321,387.5C 1321.71,385.919 1322.54,384.419 1323.5,383C 1321.36,380.385 1320.36,377.385 1320.5,374C 1321.26,359.18 1321.76,344.346 1322,329.5C 1323.38,325.836 1325.21,322.503 1327.5,319.5 Z"/></g>
<g><path style="opacity:0.933" fill="#000000" d="M 1505.5,353.5 C 1510.58,353.25 1515.58,353.75 1520.5,355C 1521.87,356.242 1522.87,357.742 1523.5,359.5C 1522.84,362.992 1521.51,366.159 1519.5,369C 1514.91,370.864 1510.24,372.53 1505.5,374C 1498.91,380.102 1496.74,387.602 1499,396.5C 1499.69,399.057 1501.19,400.891 1503.5,402C 1511.18,402.514 1518.85,403.181 1526.5,404C 1527,404.5 1527.5,405 1528,405.5C 1528.36,408.525 1528.86,411.525 1529.5,414.5C 1529.12,416.383 1528.12,417.883 1526.5,419C 1518.17,419.333 1509.83,419.667 1501.5,420C 1500.67,420.833 1499.83,421.667 1499,422.5C 1498.17,445.829 1497.5,469.162 1497,492.5C 1493.68,498.608 1489.01,499.941 1483,496.5C 1482.67,493.833 1482.33,491.167 1482,488.5C 1481.96,452.168 1482.3,415.835 1483,379.5C 1485.25,371.168 1489.41,364.002 1495.5,358C 1498.89,356.38 1502.23,354.88 1505.5,353.5 Z"/></g>
<g><path style="opacity:0.926" fill="#000000" d="M 81.5,356.5 C 86.5111,356.334 91.5111,356.501 96.5,357C 102.631,359.163 108.964,360.497 115.5,361C 116.667,362.167 117.833,363.333 119,364.5C 120.602,376.095 120.935,387.762 120,399.5C 119.062,402.812 118.229,406.145 117.5,409.5C 123.483,435.405 121.65,460.738 112,485.5C 107.833,490.333 103.667,495.167 99.5,500C 96.1667,501.333 92.8333,502.667 89.5,504C 97.9714,506.498 106.638,508.164 115.5,509C 117.81,510.637 119.31,512.804 120,515.5C 120.667,526.167 120.667,536.833 120,547.5C 119.062,550.812 118.229,554.145 117.5,557.5C 123.711,584.215 121.544,610.215 111,635.5C 106.798,639.367 102.965,643.533 99.5,648C 95.1036,650.366 90.4369,651.866 85.5,652.5C 78.2726,651.443 71.2726,649.61 64.5,647C 56.9546,641.737 52.6213,634.571 51.5,625.5C 51.2492,621.497 52.9158,618.664 56.5,617C 58.8333,616.333 61.1667,616.333 63.5,617C 66.8954,622.436 70.562,627.769 74.5,633C 79.0466,634.545 83.7133,634.879 88.5,634C 94.2029,629.635 98.3696,624.135 101,617.5C 101.123,610.67 102.123,604.004 104,597.5C 104.804,592.249 104.637,587.082 103.5,582C 100.034,583.066 96.7007,584.733 93.5,587C 72.2442,589.097 59.4109,579.597 55,558.5C 52.909,539.675 58.409,523.508 71.5,510C 74.9939,508.421 78.3272,506.587 81.5,504.5C 66.8381,503.003 57.0048,495.336 52,481.5C 50.0001,471.836 53.8334,467.669 63.5,469C 66.8954,474.436 70.562,479.769 74.5,485C 79.0466,486.545 83.7133,486.879 88.5,486C 94.2029,481.635 98.3696,476.135 101,469.5C 101.123,462.67 102.123,456.004 104,449.5C 104.804,444.249 104.637,439.082 103.5,434C 100.034,435.066 96.7007,436.733 93.5,439C 72.2442,441.097 59.4109,431.597 55,410.5C 52.909,391.675 58.409,375.508 71.5,362C 75.0561,360.392 78.3894,358.559 81.5,356.5 Z M 86.5,372.5 C 88.5273,372.338 90.5273,372.505 92.5,373C 96.1667,375.333 99.8333,377.667 103.5,380C 104.127,381.738 104.46,383.571 104.5,385.5C 103.226,392.808 102.06,400.142 101,407.5C 97.7838,414.673 92.7838,420.006 86,423.5C 75.5134,420.854 70.0134,414.188 69.5,403.5C 70.605,394.746 73.105,386.413 77,378.5C 79.8426,375.837 83.0093,373.837 86.5,372.5 Z M 86.5,520.5 C 88.5273,520.338 90.5273,520.505 92.5,521C 96.1667,523.333 99.8333,525.667 103.5,528C 104.127,529.738 104.46,531.571 104.5,533.5C 103.226,540.808 102.06,548.142 101,555.5C 97.7838,562.673 92.7838,568.006 86,571.5C 75.5134,568.854 70.0134,562.188 69.5,551.5C 70.605,542.746 73.105,534.413 77,526.5C 79.8426,523.837 83.0093,521.837 86.5,520.5 Z"/></g>
<g><path style="opacity:0.924" fill="#000000" d="M -0.5,441.5 C -0.5,431.167 -0.5,420.833 -0.5,410.5C 1.16853,415.311 3.3352,419.978 6,424.5C 12.2503,431.004 17.917,430.337 23,422.5C 31.4088,406.401 29.2421,391.901 16.5,379C 10.8433,374.922 5.17662,374.755 -0.5,378.5C -0.5,372.167 -0.5,365.833 -0.5,359.5C 0.915003,358.711 2.415,358.044 4,357.5C 35.2932,364.167 48.6265,383.5 44,415.5C 40.641,425.729 35.141,434.562 27.5,442C 18.0255,449.315 8.69214,449.148 -0.5,441.5 Z"/></g>
<g><path style="opacity:0.922" fill="#000000" d="M 1386.5,357.5 C 1395.1,359.883 1402.6,364.216 1409,370.5C 1415.33,379.534 1414.83,388.2 1407.5,396.5C 1402.5,399 1397.5,401.5 1392.5,404C 1385.13,404.313 1377.8,404.98 1370.5,406C 1367,409.929 1366.84,414.095 1370,418.5C 1374.13,426.567 1380.79,430.233 1390,429.5C 1396.57,428.709 1403.07,427.876 1409.5,427C 1418.17,434.766 1417.17,440.433 1406.5,444C 1386.9,450.687 1370.4,446.187 1357,430.5C 1352.25,423.008 1350.42,414.842 1351.5,406C 1351.41,393.606 1354.58,382.106 1361,371.5C 1365.44,368.697 1369.6,365.531 1373.5,362C 1378.1,360.943 1382.43,359.443 1386.5,357.5 Z M 1382.5,372.5 C 1387.54,371.431 1391.38,373.097 1394,377.5C 1394.71,379.971 1394.37,382.305 1393,384.5C 1385.94,389.088 1378.44,390.588 1370.5,389C 1373.21,382.475 1377.21,376.975 1382.5,372.5 Z"/></g>
<g><path style="opacity:0.927" fill="#000000" d="M 1562.5,357.5 C 1562.5,363.833 1562.5,370.167 1562.5,376.5C 1560.28,377.203 1558.45,378.536 1557,380.5C 1555.77,385.819 1554.6,391.153 1553.5,396.5C 1556.53,404.604 1559.53,412.604 1562.5,420.5C 1562.5,428.5 1562.5,436.5 1562.5,444.5C 1556.93,441.765 1552.43,437.765 1549,432.5C 1542.25,421.022 1538.42,408.689 1537.5,395.5C 1536.98,384.902 1540.31,375.735 1547.5,368C 1551.35,365.239 1555.02,362.239 1558.5,359C 1559.74,358.209 1561.08,357.709 1562.5,357.5 Z"/></g>
<g><path style="opacity:0.922" fill="#000000" d="M 1327.5,467.5 C 1336.03,465.623 1340.36,468.956 1340.5,477.5C 1338.1,484.695 1338.1,491.861 1340.5,499C 1337.71,513.311 1336.21,527.811 1336,542.5C 1334.71,545.596 1334.87,548.763 1336.5,552C 1335.35,555.136 1334.35,558.302 1333.5,561.5C 1334.97,565.607 1336.3,569.774 1337.5,574C 1336.76,581.143 1336.26,588.309 1336,595.5C 1332.09,602.096 1327.09,603.096 1321,598.5C 1320.83,594 1320.67,589.5 1320.5,585C 1320.99,568.513 1321.15,552.013 1321,535.5C 1321.71,533.919 1322.54,532.419 1323.5,531C 1321.36,528.385 1320.36,525.385 1320.5,522C 1321.26,507.18 1321.76,492.346 1322,477.5C 1323.38,473.836 1325.21,470.503 1327.5,467.5 Z"/></g>
<g><path style="opacity:0.933" fill="#000000" d="M 1505.5,501.5 C 1510.58,501.25 1515.58,501.75 1520.5,503C 1521.87,504.242 1522.87,505.742 1523.5,507.5C 1522.84,510.992 1521.51,514.159 1519.5,517C 1514.91,518.864 1510.24,520.53 1505.5,522C 1498.91,528.102 1496.74,535.602 1499,544.5C 1499.69,547.057 1501.19,548.891 1503.5,550C 1511.18,550.514 1518.85,551.181 1526.5,552C 1527,552.5 1527.5,553 1528,553.5C 1528.36,556.525 1528.86,559.525 1529.5,562.5C 1529.12,564.383 1528.12,565.883 1526.5,567C 1518.17,567.333 1509.83,567.667 1501.5,568C 1500.67,568.833 1499.83,569.667 1499,570.5C 1498.17,593.829 1497.5,617.162 1497,640.5C 1493.68,646.608 1489.01,647.941 1483,644.5C 1482.67,641.833 1482.33,639.167 1482,636.5C 1481.96,600.168 1482.3,563.835 1483,527.5C 1485.25,519.168 1489.41,512.002 1495.5,506C 1498.89,504.38 1502.23,502.88 1505.5,501.5 Z"/></g>
<g><path style="opacity:0.924" fill="#000000" d="M -0.5,589.5 C -0.5,579.167 -0.5,568.833 -0.5,558.5C 1.16853,563.311 3.3352,567.978 6,572.5C 12.2503,579.004 17.917,578.337 23,570.5C 31.4088,554.401 29.2421,539.901 16.5,527C 10.8433,522.922 5.17662,522.755 -0.5,526.5C -0.5,520.167 -0.5,513.833 -0.5,507.5C 0.915003,506.711 2.415,506.044 4,505.5C 35.2932,512.167 48.6265,531.5 44,563.5C 40.641,573.729 35.141,582.562 27.5,590C 18.0255,597.315 8.69214,597.148 -0.5,589.5 Z"/></g>
<g><path style="opacity:0.922" fill="#000000" d="M 1386.5,505.5 C 1395.1,507.883 1402.6,512.216 1409,518.5C 1415.33,527.534 1414.83,536.2 1407.5,544.5C 1402.5,547 1397.5,549.5 1392.5,552C 1385.13,552.313 1377.8,552.98 1370.5,554C 1367,557.929 1366.84,562.095 1370,566.5C 1374.13,574.567 1380.79,578.233 1390,577.5C 1396.57,576.709 1403.07,575.876 1409.5,575C 1418.17,582.766 1417.17,588.433 1406.5,592C 1386.9,598.687 1370.4,594.187 1357,578.5C 1352.25,571.008 1350.42,562.842 1351.5,554C 1351.41,541.606 1354.58,530.106 1361,519.5C 1365.44,516.697 1369.6,513.531 1373.5,510C 1378.1,508.943 1382.43,507.443 1386.5,505.5 Z M 1382.5,520.5 C 1387.54,519.431 1391.38,521.097 1394,525.5C 1394.71,527.971 1394.37,530.305 1393,532.5C 1385.94,537.088 1378.44,538.588 1370.5,537C 1373.21,530.475 1377.21,524.975 1382.5,520.5 Z"/></g>
<g><path style="opacity:0.927" fill="#000000" d="M 1562.5,505.5 C 1562.5,511.833 1562.5,518.167 1562.5,524.5C 1560.28,525.203 1558.45,526.536 1557,528.5C 1555.77,533.819 1554.6,539.153 1553.5,544.5C 1556.53,552.604 1559.53,560.604 1562.5,568.5C 1562.5,576.5 1562.5,584.5 1562.5,592.5C 1556.93,589.765 1552.43,585.765 1549,580.5C 1542.25,569.022 1538.42,556.689 1537.5,543.5C 1536.98,532.902 1540.31,523.735 1547.5,516C 1551.35,513.239 1555.02,510.239 1558.5,507C 1559.74,506.209 1561.08,505.709 1562.5,505.5 Z"/></g>
<g><path style="opacity:0.922" fill="#000000" d="M 1327.5,618.5 C 1336.03,616.623 1340.36,619.956 1340.5,628.5C 1338.1,635.695 1338.1,642.861 1340.5,650C 1337.71,664.311 1336.21,678.811 1336,693.5C 1334.71,696.596 1334.87,699.763 1336.5,703C 1335.35,706.136 1334.35,709.302 1333.5,712.5C 1334.97,716.607 1336.3,720.774 1337.5,725C 1336.76,732.143 1336.26,739.309 1336,746.5C 1332.09,753.096 1327.09,754.096 1321,749.5C 1320.83,745 1320.67,740.5 1320.5,736C 1320.99,719.513 1321.15,703.013 1321,686.5C 1321.71,684.919 1322.54,683.419 1323.5,682C 1321.36,679.385 1320.36,676.385 1320.5,673C 1321.26,658.18 1321.76,643.346 1322,628.5C 1323.38,624.836 1325.21,621.503 1327.5,618.5 Z"/></g>
<g><path style="opacity:0.933" fill="#000000" d="M 1505.5,652.5 C 1510.58,652.25 1515.58,652.75 1520.5,654C 1521.87,655.242 1522.87,656.742 1523.5,658.5C 1522.84,661.992 1521.51,665.159 1519.5,668C 1514.91,669.864 1510.24,671.53 1505.5,673C 1498.91,679.102 1496.74,686.602 1499,695.5C 1499.69,698.057 1501.19,699.891 1503.5,701C 1511.18,701.514 1518.85,702.181 1526.5,703C 1527,703.5 1527.5,704 1528,704.5C 1528.36,707.525 1528.86,710.525 1529.5,713.5C 1529.12,715.383 1528.12,716.883 1526.5,718C 1518.17,718.333 1509.83,718.667 1501.5,719C 1500.67,719.833 1499.83,720.667 1499,721.5C 1498.17,744.829 1497.5,768.162 1497,791.5C 1493.68,797.608 1489.01,798.941 1483,795.5C 1482.67,792.833 1482.33,790.167 1482,787.5C 1481.96,751.168 1482.3,714.835 1483,678.5C 1485.25,670.168 1489.41,663.002 1495.5,657C 1498.89,655.38 1502.23,653.88 1505.5,652.5 Z"/></g>
<g><path style="opacity:0.926" fill="#000000" d="M 81.5,655.5 C 86.5111,655.334 91.5111,655.501 96.5,656C 102.631,658.163 108.964,659.497 115.5,660C 116.667,661.167 117.833,662.333 119,663.5C 120.602,675.095 120.935,686.762 120,698.5C 119.062,701.812 118.229,705.145 117.5,708.5C 123.483,734.405 121.65,759.738 112,784.5C 107.833,789.333 103.667,794.167 99.5,799C 96.1667,800.333 92.8333,801.667 89.5,803C 97.9714,805.498 106.638,807.164 115.5,808C 117.81,809.637 119.31,811.804 120,814.5C 120.667,825.167 120.667,835.833 120,846.5C 119.062,849.812 118.229,853.145 117.5,856.5C 123.711,883.215 121.544,909.215 111,934.5C 106.798,938.367 102.965,942.533 99.5,947C 95.1036,949.366 90.4369,950.866 85.5,951.5C 78.2726,950.443 71.2726,948.61 64.5,946C 56.9546,940.737 52.6213,933.571 51.5,924.5C 51.2492,920.497 52.9158,917.664 56.5,916C 58.8333,915.333 61.1667,915.333 63.5,916C 66.8954,921.436 70.562,926.769 74.5,932C 79.0466,933.545 83.7133,933.879 88.5,933C 94.2029,928.635 98.3696,923.135 101,916.5C 101.123,909.67 102.123,903.004 104,896.5C 104.804,891.249 104.637,886.082 103.5,881C 100.034,882.066 96.7007,883.733 93.5,886C 72.2442,888.097 59.4109,878.597 55,857.5C 52.909,838.675 58.409,822.508 71.5,809C 74.9939,807.421 78.3272,805.587 81.5,803.5C 66.8381,802.003 57.0048,794.336 52,780.5C 50.0001,770.836 53.8334,766.669 63.5,768C 66.8954,773.436 70.562,778.769 74.5,784C 79.0466,785.545 83.7133,785.879 88.5,785C 94.2029,780.635 98.3696,775.135 101,768.5C 101.123,761.67 102.123,755.004 104,748.5C 104.804,743.249 104.637,738.082 103.5,733C 100.034,734.066 96.7007,735.733 93.5,738C 72.2442,740.097 59.4109,730.597 55,709.5C 52.909,690.675 58.409,674.508 71.5,661C 75.0561,659.392 78.3894,657.559 81.5,655.5 Z M 86.5,671.5 C 88.5273,671.338 90.5273,671.505 92.5,672C 96.1667,674.333 99.8333,676.667 103.5,679C 104.127,680.738 104.46,682.571 104.5,684.5C 103.226,691.808 102.06,699.142 101,706.5C 97.7838,713.673 92.7838,719.006 86,722.5C 75.5134,719.854 70.0134,713.188 69.5,702.5C 70.605,693.746 73.105,685.413 77,677.5C 79.8426,674.837 83.0093,672.837 86.5,671.5 Z M 86.5,819.5 C 88.5273,819.338 90.5273,819.505 92.5,820C 96.1667,822.333 99.8333,824.667 103.5,827C 104.127,828.738 104.46,830.571 104.5,832.5C 103.226,839.808 102.06,847.142 101,854.5C 97.7838,861.673 92.7838,867.006 86,870.5C 75.5134,867.854 70.0134,861.188 69.5,850.5C 70.605,841.746 73.105,833.413 77,825.5C 79.8426,822.837 83.0093,820.837 86.5,819.5 Z"/></g>
<g><path style="opacity:0.924" fill="#000000" d="M -0.5,740.5 C -0.5,730.167 -0.5,719.833 -0.5,709.5C 1.16853,714.311 3.3352,718.978 6,723.5C 12.2503,730.004 17.917,729.337 23,721.5C 31.4088,705.401 29.2421,690.901 16.5,678C 10.8433,673.922 5.17662,673.755 -0.5,677.5C -0.5,671.167 -0.5,664.833 -0.5,658.5C 0.915003,657.711 2.415,657.044 4,656.5C 35.2932,663.167 48.6265,682.5 44,714.5C 40.641,724.729 35.141,733.562 27.5,741C 18.0255,748.315 8.69214,748.148 -0.5,740.5 Z"/></g>
<g><path style="opacity:0.922" fill="#000000" d="M 1386.5,656.5 C 1395.1,658.883 1402.6,663.216 1409,669.5C 1415.33,678.534 1414.83,687.2 1407.5,695.5C 1402.5,698 1397.5,700.5 1392.5,703C 1385.13,703.313 1377.8,703.98 1370.5,705C 1367,708.929 1366.84,713.095 1370,717.5C 1374.13,725.567 1380.79,729.233 1390,728.5C 1396.57,727.709 1403.07,726.876 1409.5,726C 1418.17,733.766 1417.17,739.433 1406.5,743C 1386.9,749.687 1370.4,745.187 1357,729.5C 1352.25,722.008 1350.42,713.842 1351.5,705C 1351.41,692.606 1354.58,681.106 1361,670.5C 1365.44,667.697 1369.6,664.531 1373.5,661C 1378.1,659.943 1382.43,658.443 1386.5,656.5 Z M 1382.5,671.5 C 1387.54,670.431 1391.38,672.097 1394,676.5C 1394.71,678.971 1394.37,681.305 1393,683.5C 1385.94,688.088 1378.44,689.588 1370.5,688C 1373.21,681.475 1377.21,675.975 1382.5,671.5 Z"/></g>
<g><path style="opacity:0.927" fill="#000000" d="M 1562.5,656.5 C 1562.5,662.833 1562.5,669.167 1562.5,675.5C 1560.28,676.203 1558.45,677.536 1557,679.5C 1555.77,684.819 1554.6,690.153 1553.5,695.5C 1556.53,703.604 1559.53,711.604 1562.5,719.5C 1562.5,727.5 1562.5,735.5 1562.5,743.5C 1556.93,740.765 1552.43,736.765 1549,731.5C 1542.25,720.022 1538.42,707.689 1537.5,694.5C 1536.98,683.902 1540.31,674.735 1547.5,667C 1551.35,664.239 1555.02,661.239 1558.5,658C 1559.74,657.209 1561.08,656.709 1562.5,656.5 Z"/></g>
<g><path style="opacity:0.922" fill="#000000" d="M 1327.5,766.5 C 1336.03,764.623 1340.36,767.956 1340.5,776.5C 1338.1,783.695 1338.1,790.861 1340.5,798C 1337.71,812.311 1336.21,826.811 1336,841.5C 1334.71,844.596 1334.87,847.763 1336.5,851C 1335.35,854.136 1334.35,857.302 1333.5,860.5C 1334.97,864.607 1336.3,868.774 1337.5,873C 1336.76,880.143 1336.26,887.309 1336,894.5C 1332.09,901.096 1327.09,902.096 1321,897.5C 1320.83,893 1320.67,888.5 1320.5,884C 1320.99,867.513 1321.15,851.013 1321,834.5C 1321.71,832.919 1322.54,831.419 1323.5,830C 1321.36,827.385 1320.36,824.385 1320.5,821C 1321.26,806.18 1321.76,791.346 1322,776.5C 1323.38,772.836 1325.21,769.503 1327.5,766.5 Z"/></g>
<g><path style="opacity:0.933" fill="#000000" d="M 1505.5,800.5 C 1510.58,800.25 1515.58,800.75 1520.5,802C 1521.87,803.242 1522.87,804.742 1523.5,806.5C 1522.84,809.992 1521.51,813.159 1519.5,816C 1514.91,817.864 1510.24,819.53 1505.5,821C 1498.91,827.102 1496.74,834.602 1499,843.5C 1499.69,846.057 1501.19,847.891 1503.5,849C 1511.18,849.514 1518.85,850.181 1526.5,851C 1527,851.5 1527.5,852 1528,852.5C 1528.36,855.525 1528.86,858.525 1529.5,861.5C 1529.12,863.383 1528.12,864.883 1526.5,866C 1518.17,866.333 1509.83,866.667 1501.5,867C 1500.67,867.833 1499.83,868.667 1499,869.5C 1498.17,892.829 1497.5,916.162 1497,939.5C 1493.68,945.608 1489.01,946.941 1483,943.5C 1482.67,940.833 1482.33,938.167 1482,935.5C 1481.96,899.168 1482.3,862.835 1483,826.5C 1485.25,818.168 1489.41,811.002 1495.5,805C 1498.89,803.38 1502.23,801.88 1505.5,800.5 Z"/></g>
<g><path style="opacity:0.924" fill="#000000" d="M -0.5,888.5 C -0.5,878.167 -0.5,867.833 -0.5,857.5C 1.16853,862.311 3.3352,866.978 6,871.5C 12.2503,878.004 17.917,877.337 23,869.5C 31.4088,853.401 29.2421,838.901 16.5,826C 10.8433,821.922 5.17662,821.755 -0.5,825.5C -0.5,819.167 -0.5,812.833 -0.5,806.5C 0.915003,805.711 2.415,805.044 4,804.5C 35.2932,811.167 48.6265,830.5 44,862.5C 40.641,872.729 35.141,881.562 27.5,889C 18.0255,896.315 8.69214,896.148 -0.5,888.5 Z"/></g>
<g><path style="opacity:0.922" fill="#000000" d="M 1386.5,804.5 C 1395.1,806.883 1402.6,811.216 1409,817.5C 1415.33,826.534 1414.83,835.2 1407.5,843.5C 1402.5,846 1397.5,848.5 1392.5,851C 1385.13,851.313 1377.8,851.98 1370.5,853C 1367,856.929 1366.84,861.095 1370,865.5C 1374.13,873.567 1380.79,877.233 1390,876.5C 1396.57,875.709 1403.07,874.876 1409.5,874C 1418.17,881.766 1417.17,887.433 1406.5,891C 1386.9,897.687 1370.4,893.187 1357,877.5C 1352.25,870.008 1350.42,861.842 1351.5,853C 1351.41,840.606 1354.58,829.106 1361,818.5C 1365.44,815.697 1369.6,812.531 1373.5,809C 1378.1,807.943 1382.43,806.443 1386.5,804.5 Z M 1382.5,819.5 C 1387.54,818.431 1391.38,820.097 1394,824.5C 1394.71,826.971 1394.37,829.305 1393,831.5C 1385.94,836.088 1378.44,837.588 1370.5,836C 1373.21,829.475 1377.21,823.975 1382.5,819.5 Z"/></g>
<g><path style="opacity:0.927" fill="#000000" d="M 1562.5,804.5 C 1562.5,810.833 1562.5,817.167 1562.5,823.5C 1560.28,824.203 1558.45,825.536 1557,827.5C 1555.77,832.819 1554.6,838.153 1553.5,843.5C 1556.53,851.604 1559.53,859.604 1562.5,867.5C 1562.5,875.5 1562.5,883.5 1562.5,891.5C 1556.93,888.765 1552.43,884.765 1549,879.5C 1542.25,868.022 1538.42,855.689 1537.5,842.5C 1536.98,831.902 1540.31,822.735 1547.5,815C 1551.35,812.239 1555.02,809.239 1558.5,806C 1559.74,805.209 1561.08,804.709 1562.5,804.5 Z"/></g>
<g><path style="opacity:0.922" fill="#000000" d="M 1327.5,917.5 C 1336.03,915.623 1340.36,918.956 1340.5,927.5C 1338.1,934.695 1338.1,941.861 1340.5,949C 1337.71,963.311 1336.21,977.811 1336,992.5C 1334.71,995.596 1334.87,998.763 1336.5,1002C 1335.35,1005.14 1334.35,1008.3 1333.5,1011.5C 1334.97,1015.61 1336.3,1019.77 1337.5,1024C 1336.76,1031.14 1336.26,1038.31 1336,1045.5C 1332.09,1052.1 1327.09,1053.1 1321,1048.5C 1320.83,1044 1320.67,1039.5 1320.5,1035C 1320.99,1018.51 1321.15,1002.01 1321,985.5C 1321.71,983.919 1322.54,982.419 1323.5,981C 1321.36,978.385 1320.36,975.385 1320.5,972C 1321.26,957.18 1321.76,942.346 1322,927.5C 1323.38,923.836 1325.21,920.503 1327.5,917.5 Z"/></g>
<g><path style="opacity:0.933" fill="#000000" d="M 1505.5,951.5 C 1510.58,951.25 1515.58,951.75 1520.5,953C 1521.87,954.242 1522.87,955.742 1523.5,957.5C 1522.84,960.992 1521.51,964.159 1519.5,967C 1514.91,968.864 1510.24,970.53 1505.5,972C 1498.91,978.102 1496.74,985.602 1499,994.5C 1499.69,997.057 1501.19,998.891 1503.5,1000C 1511.18,1000.51 1518.85,1001.18 1526.5,1002C 1527,1002.5 1527.5,1003 1528,1003.5C 1528.36,1006.53 1528.86,1009.53 1529.5,1012.5C 1529.12,1014.38 1528.12,1015.88 1526.5,1017C 1518.17,1017.33 1509.83,1017.67 1501.5,1018C 1500.67,1018.83 1499.83,1019.67 1499,1020.5C 1498.17,1043.83 1497.5,1067.16 1497,1090.5C 1493.68,1096.61 1489.01,1097.94 1483,1094.5C 1482.67,1091.83 1482.33,1089.17 1482,1086.5C 1481.96,1050.17 1482.3,1013.83 1483,977.5C 1485.25,969.168 1489.41,962.002 1495.5,956C 1498.89,954.38 1502.23,952.88 1505.5,951.5 Z"/></g>
<g><path style="opacity:0.926" fill="#000000" d="M 81.5,954.5 C 86.5111,954.334 91.5111,954.501 96.5,955C 102.631,957.163 108.964,958.497 115.5,959C 117.81,960.637 119.31,962.804 120,965.5C 120.667,976.167 120.667,986.833 120,997.5C 119.062,1000.81 118.229,1004.15 117.5,1007.5C 123.711,1034.21 121.544,1060.21 111,1085.5C 106.798,1089.37 102.965,1093.53 99.5,1098C 95.1036,1100.37 90.4369,1101.87 85.5,1102.5C 78.2726,1101.44 71.2726,1099.61 64.5,1097C 56.9546,1091.74 52.6213,1084.57 51.5,1075.5C 51.2492,1071.5 52.9158,1068.66 56.5,1067C 58.8333,1066.33 61.1667,1066.33 63.5,1067C 66.8954,1072.44 70.562,1077.77 74.5,1083C 79.0466,1084.55 83.7133,1084.88 88.5,1084C 94.2029,1079.63 98.3696,1074.13 101,1067.5C 101.123,1060.67 102.123,1054 104,1047.5C 104.667,1042.5 104.667,1037.5 104,1032.5C 103.586,1032.04 103.086,1031.71 102.5,1031.5C 86.759,1041.32 72.9257,1038.99 61,1024.5C 49.5426,1000.55 53.0426,979.046 71.5,960C 75.0561,958.392 78.3894,956.559 81.5,954.5 Z M 86.5,970.5 C 88.5273,970.338 90.5273,970.505 92.5,971C 96.1667,973.333 99.8333,975.667 103.5,978C 104.127,979.738 104.46,981.571 104.5,983.5C 103.226,990.808 102.06,998.142 101,1005.5C 97.7838,1012.67 92.7838,1018.01 86,1021.5C 75.5134,1018.85 70.0134,1012.19 69.5,1001.5C 70.605,992.746 73.105,984.413 77,976.5C 79.8426,973.837 83.0093,971.837 86.5,970.5 Z"/></g>
<g><path style="opacity:0.924" fill="#000000" d="M -0.5,1039.5 C -0.5,1029.17 -0.5,1018.83 -0.5,1008.5C 1.16853,1013.31 3.3352,1017.98 6,1022.5C 12.2503,1029 17.917,1028.34 23,1020.5C 31.4088,1004.4 29.2421,989.901 16.5,977C 10.8433,972.922 5.17662,972.755 -0.5,976.5C -0.5,970.167 -0.5,963.833 -0.5,957.5C 0.915003,956.711 2.415,956.044 4,955.5C 35.2932,962.167 48.6265,981.5 44,1013.5C 40.641,1023.73 35.141,1032.56 27.5,1040C 18.0255,1047.32 8.69214,1047.15 -0.5,1039.5 Z"/></g>
<g><path style="opacity:0.922" fill="#000000" d="M 1386.5,955.5 C 1395.1,957.883 1402.6,962.216 1409,968.5C 1415.33,977.534 1414.83,986.2 1407.5,994.5C 1402.5,997 1397.5,999.5 1392.5,1002C 1385.13,1002.31 1377.8,1002.98 1370.5,1004C 1367,1007.93 1366.84,1012.1 1370,1016.5C 1374.13,1024.57 1380.79,1028.23 1390,1027.5C 1396.57,1026.71 1403.07,1025.88 1409.5,1025C 1418.17,1032.77 1417.17,1038.43 1406.5,1042C 1386.9,1048.69 1370.4,1044.19 1357,1028.5C 1352.25,1021.01 1350.42,1012.84 1351.5,1004C 1351.41,991.606 1354.58,980.106 1361,969.5C 1365.44,966.697 1369.6,963.531 1373.5,960C 1378.1,958.943 1382.43,957.443 1386.5,955.5 Z M 1382.5,970.5 C 1387.54,969.431 1391.38,971.097 1394,975.5C 1394.71,977.971 1394.37,980.305 1393,982.5C 1385.94,987.088 1378.44,988.588 1370.5,987C 1373.21,980.475 1377.21,974.975 1382.5,970.5 Z"/></g>
<g><path style="opacity:0.927" fill="#000000" d="M 1562.5,955.5 C 1562.5,961.833 1562.5,968.167 1562.5,974.5C 1560.28,975.203 1558.45,976.536 1557,978.5C 1555.77,983.819 1554.6,989.153 1553.5,994.5C 1556.53,1002.6 1559.53,1010.6 1562.5,1018.5C 1562.5,1026.5 1562.5,1034.5 1562.5,1042.5C 1556.93,1039.76 1552.43,1035.76 1549,1030.5C 1542.25,1019.02 1538.42,1006.69 1537.5,993.5C 1536.98,982.902 1540.31,973.735 1547.5,966C 1551.35,963.239 1555.02,960.239 1558.5,957C 1559.74,956.209 1561.08,955.709 1562.5,955.5 Z"/></g>
<g><path style="opacity:0.922" fill="#000000" d="M 1327.5,1067.5 C 1336.03,1065.62 1340.36,1068.96 1340.5,1077.5C 1338.1,1084.69 1338.1,1091.86 1340.5,1099C 1337.71,1113.31 1336.21,1127.81 1336,1142.5C 1334.71,1145.6 1334.87,1148.76 1336.5,1152C 1335.35,1155.14 1334.35,1158.3 1333.5,1161.5C 1334.97,1165.61 1336.3,1169.77 1337.5,1174C 1336.76,1181.14 1336.26,1188.31 1336,1195.5C 1332.09,1202.1 1327.09,1203.1 1321,1198.5C 1320.83,1194 1320.67,1189.5 1320.5,1185C 1320.99,1168.51 1321.15,1152.01 1321,1135.5C 1321.71,1133.92 1322.54,1132.42 1323.5,1131C 1321.36,1128.38 1320.36,1125.38 1320.5,1122C 1321.26,1107.18 1321.76,1092.35 1322,1077.5C 1323.38,1073.84 1325.21,1070.5 1327.5,1067.5 Z"/></g>
<g><path style="opacity:0.933" fill="#000000" d="M 1505.5,1101.5 C 1510.58,1101.25 1515.58,1101.75 1520.5,1103C 1521.87,1104.24 1522.87,1105.74 1523.5,1107.5C 1522.84,1110.99 1521.51,1114.16 1519.5,1117C 1514.91,1118.86 1510.24,1120.53 1505.5,1122C 1498.91,1128.1 1496.74,1135.6 1499,1144.5C 1499.69,1147.06 1501.19,1148.89 1503.5,1150C 1511.18,1150.51 1518.85,1151.18 1526.5,1152C 1527,1152.5 1527.5,1153 1528,1153.5C 1528.36,1156.53 1528.86,1159.53 1529.5,1162.5C 1529.12,1164.38 1528.12,1165.88 1526.5,1167C 1518.17,1167.33 1509.83,1167.67 1501.5,1168C 1500.67,1168.83 1499.83,1169.67 1499,1170.5C 1498.17,1193.83 1497.5,1217.16 1497,1240.5C 1493.68,1246.61 1489.01,1247.94 1483,1244.5C 1482.67,1241.83 1482.33,1239.17 1482,1236.5C 1481.96,1200.17 1482.3,1163.83 1483,1127.5C 1485.25,1119.17 1489.41,1112 1495.5,1106C 1498.89,1104.38 1502.23,1102.88 1505.5,1101.5 Z"/></g>
<g><path style="opacity:0.926" fill="#000000" d="M 81.5,1104.5 C 86.5111,1104.33 91.5111,1104.5 96.5,1105C 102.631,1107.16 108.964,1108.5 115.5,1109C 117.81,1110.64 119.31,1112.8 120,1115.5C 120.667,1126.17 120.667,1136.83 120,1147.5C 119.062,1150.81 118.229,1154.15 117.5,1157.5C 123.711,1184.21 121.544,1210.21 111,1235.5C 106.798,1239.37 102.965,1243.53 99.5,1248C 95.1036,1250.37 90.4369,1251.87 85.5,1252.5C 78.2726,1251.44 71.2726,1249.61 64.5,1247C 56.9546,1241.74 52.6213,1234.57 51.5,1225.5C 51.2492,1221.5 52.9158,1218.66 56.5,1217C 58.8333,1216.33 61.1667,1216.33 63.5,1217C 66.8954,1222.44 70.562,1227.77 74.5,1233C 79.0466,1234.55 83.7133,1234.88 88.5,1234C 94.2029,1229.63 98.3696,1224.13 101,1217.5C 101.123,1210.67 102.123,1204 104,1197.5C 104.667,1192.5 104.667,1187.5 104,1182.5C 103.586,1182.04 103.086,1181.71 102.5,1181.5C 86.759,1191.32 72.9257,1188.99 61,1174.5C 49.5426,1150.55 53.0426,1129.05 71.5,1110C 75.0561,1108.39 78.3894,1106.56 81.5,1104.5 Z M 86.5,1120.5 C 88.5273,1120.34 90.5273,1120.5 92.5,1121C 96.1667,1123.33 99.8333,1125.67 103.5,1128C 104.127,1129.74 104.46,1131.57 104.5,1133.5C 103.226,1140.81 102.06,1148.14 101,1155.5C 97.7838,1162.67 92.7838,1168.01 86,1171.5C 75.5134,1168.85 70.0134,1162.19 69.5,1151.5C 70.605,1142.75 73.105,1134.41 77,1126.5C 79.8426,1123.84 83.0093,1121.84 86.5,1120.5 Z"/></g>
<g><path style="opacity:0.924" fill="#000000" d="M -0.5,1189.5 C -0.5,1179.17 -0.5,1168.83 -0.5,1158.5C 1.16853,1163.31 3.3352,1167.98 6,1172.5C 12.2503,1179 17.917,1178.34 23,1170.5C 31.4088,1154.4 29.2421,1139.9 16.5,1127C 10.8433,1122.92 5.17662,1122.76 -0.5,1126.5C -0.5,1120.17 -0.5,1113.83 -0.5,1107.5C 0.915003,1106.71 2.415,1106.04 4,1105.5C 35.2932,1112.17 48.6265,1131.5 44,1163.5C 40.641,1173.73 35.141,1182.56 27.5,1190C 18.0255,1197.32 8.69214,1197.15 -0.5,1189.5 Z"/></g>
<g><path style="opacity:0.922" fill="#000000" d="M 1386.5,1105.5 C 1395.1,1107.88 1402.6,1112.22 1409,1118.5C 1415.33,1127.53 1414.83,1136.2 1407.5,1144.5C 1402.5,1147 1397.5,1149.5 1392.5,1152C 1385.13,1152.31 1377.8,1152.98 1370.5,1154C 1367,1157.93 1366.84,1162.1 1370,1166.5C 1374.13,1174.57 1380.79,1178.23 1390,1177.5C 1396.57,1176.71 1403.07,1175.88 1409.5,1175C 1418.17,1182.77 1417.17,1188.43 1406.5,1192C 1386.9,1198.69 1370.4,1194.19 1357,1178.5C 1352.25,1171.01 1350.42,1162.84 1351.5,1154C 1351.41,1141.61 1354.58,1130.11 1361,1119.5C 1365.44,1116.7 1369.6,1113.53 1373.5,1110C 1378.1,1108.94 1382.43,1107.44 1386.5,1105.5 Z M 1382.5,1120.5 C 1387.54,1119.43 1391.38,1121.1 1394,1125.5C 1394.71,1127.97 1394.37,1130.3 1393,1132.5C 1385.94,1137.09 1378.44,1138.59 1370.5,1137C 1373.21,1130.48 1377.21,1124.98 1382.5,1120.5 Z"/></g>
<g><path style="opacity:0.927" fill="#000000" d="M 1562.5,1105.5 C 1562.5,1111.83 1562.5,1118.17 1562.5,1124.5C 1560.28,1125.2 1558.45,1126.54 1557,1128.5C 1555.77,1133.82 1554.6,1139.15 1553.5,1144.5C 1556.53,1152.6 1559.53,1160.6 1562.5,1168.5C 1562.5,1176.5 1562.5,1184.5 1562.5,1192.5C 1556.93,1189.76 1552.43,1185.76 1549,1180.5C 1542.25,1169.02 1538.42,1156.69 1537.5,1143.5C 1536.98,1132.9 1540.31,1123.74 1547.5,1116C 1551.35,1113.24 1555.02,1110.24 1558.5,1107C 1559.74,1106.21 1561.08,1105.71 1562.5,1105.5 Z"/></g>
<g><path style="opacity:0.922" fill="#000000" d="M 1327.5,1216.5 C 1336.03,1214.62 1340.36,1217.96 1340.5,1226.5C 1338.1,1233.69 1338.1,1240.86 1340.5,1248C 1337.71,1262.31 1336.21,1276.81 1336,1291.5C 1334.71,1294.6 1334.87,1297.76 1336.5,1301C 1335.35,1304.14 1334.35,1307.3 1333.5,1310.5C 1334.97,1314.61 1336.3,1318.77 1337.5,1323C 1336.76,1330.14 1336.26,1337.31 1336,1344.5C 1332.09,1351.1 1327.09,1352.1 1321,1347.5C 1320.83,1343 1320.67,1338.5 1320.5,1334C 1320.99,1317.51 1321.15,1301.01 1321,1284.5C 1321.71,1282.92 1322.54,1281.42 1323.5,1280C 1321.36,1277.38 1320.36,1274.38 1320.5,1271C 1321.26,1256.18 1321.76,1241.35 1322,1226.5C 1323.38,1222.84 1325.21,1219.5 1327.5,1216.5 Z"/></g>
<g><path style="opacity:0.933" fill="#000000" d="M 1505.5,1250.5 C 1510.58,1250.25 1515.58,1250.75 1520.5,1252C 1521.87,1253.24 1522.87,1254.74 1523.5,1256.5C 1522.84,1259.99 1521.51,1263.16 1519.5,1266C 1514.91,1267.86 1510.24,1269.53 1505.5,1271C 1498.91,1277.1 1496.74,1284.6 1499,1293.5C 1499.69,1296.06 1501.19,1297.89 1503.5,1299C 1511.18,1299.51 1518.85,1300.18 1526.5,1301C 1527,1301.5 1527.5,1302 1528,1302.5C 1528.36,1305.53 1528.86,1308.53 1529.5,1311.5C 1529.12,1313.38 1528.12,1314.88 1526.5,1316C 1518.17,1316.33 1509.83,1316.67 1501.5,1317C 1500.67,1317.83 1499.83,1318.67 1499,1319.5C 1498.17,1342.83 1497.5,1366.16 1497,1389.5C 1493.68,1395.61 1489.01,1396.94 1483,1393.5C 1482.67,1390.83 1482.33,1388.17 1482,1385.5C 1481.96,1349.17 1482.3,1312.83 1483,1276.5C 1485.25,1268.17 1489.41,1261 1495.5,1255C 1498.89,1253.38 1502.23,1251.88 1505.5,1250.5 Z"/></g>
<g><path style="opacity:0.926" fill="#000000" d="M 81.5,1253.5 C 86.5111,1253.33 91.5111,1253.5 96.5,1254C 102.631,1256.16 108.964,1257.5 115.5,1258C 117.81,1259.64 119.31,1261.8 120,1264.5C 120.667,1275.17 120.667,1285.83 120,1296.5C 119.062,1299.81 118.229,1303.15 117.5,1306.5C 123.711,1333.21 121.544,1359.21 111,1384.5C 106.798,1388.37 102.965,1392.53 99.5,1397C 95.1036,1399.37 90.4369,1400.87 85.5,1401.5C 78.2726,1400.44 71.2726,1398.61 64.5,1396C 56.9546,1390.74 52.6213,1383.57 51.5,1374.5C 51.2492,1370.5 52.9158,1367.66 56.5,1366C 58.8333,1365.33 61.1667,1365.33 63.5,1366C 66.8954,1371.44 70.562,1376.77 74.5,1382C 79.0466,1383.55 83.7133,1383.88 88.5,1383C 94.2029,1378.63 98.3696,1373.13 101,1366.5C 101.123,1359.67 102.123,1353 104,1346.5C 104.667,1341.5 104.667,1336.5 104,1331.5C 103.586,1331.04 103.086,1330.71 102.5,1330.5C 86.759,1340.32 72.9257,1337.99 61,1323.5C 49.5426,1299.55 53.0426,1278.05 71.5,1259C 75.0561,1257.39 78.3894,1255.56 81.5,1253.5 Z M 86.5,1269.5 C 88.5273,1269.34 90.5273,1269.5 92.5,1270C 96.1667,1272.33 99.8333,1274.67 103.5,1277C 104.127,1278.74 104.46,1280.57 104.5,1282.5C 103.226,1289.81 102.06,1297.14 101,1304.5C 97.7838,1311.67 92.7838,1317.01 86,1320.5C 75.5134,1317.85 70.0134,1311.19 69.5,1300.5C 70.605,1291.75 73.105,1283.41 77,1275.5C 79.8426,1272.84 83.0093,1270.84 86.5,1269.5 Z"/></g>
<g><path style="opacity:0.924" fill="#000000" d="M -0.5,1338.5 C -0.5,1328.17 -0.5,1317.83 -0.5,1307.5C 1.16853,1312.31 3.3352,1316.98 6,1321.5C 12.2503,1328 17.917,1327.34 23,1319.5C 31.4088,1303.4 29.2421,1288.9 16.5,1276C 10.8433,1271.92 5.17662,1271.76 -0.5,1275.5C -0.5,1269.17 -0.5,1262.83 -0.5,1256.5C 0.915003,1255.71 2.415,1255.04 4,1254.5C 35.2932,1261.17 48.6265,1280.5 44,1312.5C 40.641,1322.73 35.141,1331.56 27.5,1339C 18.0255,1346.32 8.69214,1346.15 -0.5,1338.5 Z"/></g>
<g><path style="opacity:0.922" fill="#000000" d="M 1386.5,1254.5 C 1395.1,1256.88 1402.6,1261.22 1409,1267.5C 1415.33,1276.53 1414.83,1285.2 1407.5,1293.5C 1402.5,1296 1397.5,1298.5 1392.5,1301C 1385.13,1301.31 1377.8,1301.98 1370.5,1303C 1367,1306.93 1366.84,1311.1 1370,1315.5C 1374.13,1323.57 1380.79,1327.23 1390,1326.5C 1396.57,1325.71 1403.07,1324.88 1409.5,1324C 1418.17,1331.77 1417.17,1337.43 1406.5,1341C 1386.9,1347.69 1370.4,1343.19 1357,1327.5C 1352.25,1320.01 1350.42,1311.84 1351.5,1303C 1351.41,1290.61 1354.58,1279.11 1361,1268.5C 1365.44,1265.7 1369.6,1262.53 1373.5,1259C 1378.1,1257.94 1382.43,1256.44 1386.5,1254.5 Z M 1382.5,1269.5 C 1387.54,1268.43 1391.38,1270.1 1394,1274.5C 1394.71,1276.97 1394.37,1279.3 1393,1281.5C 1385.94,1286.09 1378.44,1287.59 1370.5,1286C 1373.21,1279.48 1377.21,1273.98 1382.5,1269.5 Z"/></g>
<g><path style="opacity:0.927" fill="#000000" d="M 1562.5,1254.5 C 1562.5,1260.83 1562.5,1267.17 1562.5,1273.5C 1560.28,1274.2 1558.45,1275.54 1557,1277.5C 1555.77,1282.82 1554.6,1288.15 1553.5,1293.5C 1556.53,1301.6 1559.53,1309.6 1562.5,1317.5C 1562.5,1325.5 1562.5,1333.5 1562.5,1341.5C 1556.93,1338.76 1552.43,1334.76 1549,1329.5C 1542.25,1318.02 1538.42,1305.69 1537.5,1292.5C 1536.98,1281.9 1540.31,1272.74 1547.5,1265C 1551.35,1262.24 1555.02,1259.24 1558.5,1256C 1559.74,1255.21 1561.08,1254.71 1562.5,1254.5 Z"/></g>
<g><path style="opacity:0.922" fill="#000000" d="M 1327.5,1365.5 C 1336.03,1363.62 1340.36,1366.96 1340.5,1375.5C 1338.1,1382.69 1338.1,1389.86 1340.5,1397C 1337.71,1411.31 1336.21,1425.81 1336,1440.5C 1334.71,1443.6 1334.87,1446.76 1336.5,1450C 1335.35,1453.14 1334.35,1456.3 1333.5,1459.5C 1334.97,1463.61 1336.3,1467.77 1337.5,1472C 1336.76,1479.14 1336.26,1486.31 1336,1493.5C 1332.09,1500.1 1327.09,1501.1 1321,1496.5C 1320.83,1492 1320.67,1487.5 1320.5,1483C 1320.99,1466.51 1321.15,1450.01 1321,1433.5C 1321.71,1431.92 1322.54,1430.42 1323.5,1429C 1321.36,1426.38 1320.36,1423.38 1320.5,1420C 1321.26,1405.18 1321.76,1390.35 1322,1375.5C 1323.38,1371.84 1325.21,1368.5 1327.5,1365.5 Z"/></g>
<g><path style="opacity:0.933" fill="#000000" d="M 1505.5,1399.5 C 1510.58,1399.25 1515.58,1399.75 1520.5,1401C 1521.87,1402.24 1522.87,1403.74 1523.5,1405.5C 1522.84,1408.99 1521.51,1412.16 1519.5,1415C 1514.91,1416.86 1510.24,1418.53 1505.5,1420C 1498.91,1426.1 1496.74,1433.6 1499,1442.5C 1499.69,1445.06 1501.19,1446.89 1503.5,1448C 1511.18,1448.51 1518.85,1449.18 1526.5,1450C 1527,1450.5 1527.5,1451 1528,1451.5C 1528.36,1454.53 1528.86,1457.53 1529.5,1460.5C 1529.12,1462.38 1528.12,1463.88 1526.5,1465C 1518.17,1465.33 1509.83,1465.67 1501.5,1466C 1500.67,1466.83 1499.83,1467.67 1499,1468.5C 1498.17,1491.83 1497.5,1515.16 1497,1538.5C 1493.68,1544.61 1489.01,1545.94 1483,1542.5C 1482.67,1539.83 1482.33,1537.17 1482,1534.5C 1481.96,1498.17 1482.3,1461.83 1483,1425.5C 1485.25,1417.17 1489.41,1410 1495.5,1404C 1498.89,1402.38 1502.23,1400.88 1505.5,1399.5 Z"/></g>
<g><path style="opacity:0.926" fill="#000000" d="M 81.5,1402.5 C 86.5111,1402.33 91.5111,1402.5 96.5,1403C 102.631,1405.16 108.964,1406.5 115.5,1407C 117.81,1408.64 119.31,1410.8 120,1413.5C 120.667,1424.17 120.667,1434.83 120,1445.5C 119.062,1448.81 118.229,1452.15 117.5,1455.5C 123.711,1482.21 121.544,1508.21 111,1533.5C 106.798,1537.37 102.965,1541.53 99.5,1546C 95.1036,1548.37 90.4369,1549.87 85.5,1550.5C 78.2726,1549.44 71.2726,1547.61 64.5,1545C 56.9546,1539.74 52.6213,1532.57 51.5,1523.5C 51.2492,1519.5 52.9158,1516.66 56.5,1515C 58.8333,1514.33 61.1667,1514.33 63.5,1515C 66.8954,1520.44 70.562,1525.77 74.5,1531C 79.0466,1532.55 83.7133,1532.88 88.5,1532C 94.2029,1527.63 98.3696,1522.13 101,1515.5C 101.123,1508.67 102.123,1502 104,1495.5C 104.667,1490.5 104.667,1485.5 104,1480.5C 103.586,1480.04 103.086,1479.71 102.5,1479.5C 86.759,1489.32 72.9257,1486.99 61,1472.5C 49.5426,1448.55 53.0426,1427.05 71.5,1408C 75.0561,1406.39 78.3894,1404.56 81.5,1402.5 Z M 86.5,1418.5 C 88.5273,1418.34 90.5273,1418.5 92.5,1419C 96.1667,1421.33 99.8333,1423.67 103.5,1426C 104.127,1427.74 104.46,1429.57 104.5,1431.5C 103.226,1438.81 102.06,1446.14 101,1453.5C 97.7838,1460.67 92.7838,1466.01 86,1469.5C 75.5134,1466.85 70.0134,1460.19 69.5,1449.5C 70.605,1440.75 73.105,1432.41 77,1424.5C 79.8426,1421.84 83.0093,1419.84 86.5,1418.5 Z"/></g>
<g><path style="opacity:0.924" fill="#000000" d="M -0.5,1487.5 C -0.5,1477.17 -0.5,1466.83 -0.5,1456.5C 1.16853,1461.31 3.3352,1465.98 6,1470.5C 12.2503,1477 17.917,1476.34 23,1468.5C 31.4088,1452.4 29.2421,1437.9 16.5,1425C 10.8433,1420.92 5.17662,1420.76 -0.5,1424.5C -0.5,1418.17 -0.5,1411.83 -0.5,1405.5C 0.915003,1404.71 2.415,1404.04 4,1403.5C 35.2932,1410.17 48.6265,1429.5 44,1461.5C 40.641,1471.73 35.141,1480.56 27.5,1488C 18.0255,1495.32 8.69214,1495.15 -0.5,1487.5 Z"/></g>
<g><path style="opacity:0.922" fill="#000000" d="M 1386.5,1403.5 C 1395.1,1405.88 1402.6,1410.22 1409,1416.5C 1415.33,1425.53 1414.83,1434.2 1407.5,1442.5C 1402.5,1445 1397.5,1447.5 1392.5,1450C 1385.13,1450.31 1377.8,1450.98 1370.5,1452C 1367,1455.93 1366.84,1460.1 1370,1464.5C 1374.13,1472.57 1380.79,1476.23 1390,1475.5C 1396.57,1474.71 1403.07,1473.88 1409.5,1473C 1418.17,1480.77 1417.17,1486.43 1406.5,1490C 1386.9,1496.69 1370.4,1492.19 1357,1476.5C 1352.25,1469.01 1350.42,1460.84 1351.5,1452C 1351.41,1439.61 1354.58,1428.11 1361,1417.5C 1365.44,1414.7 1369.6,1411.53 1373.5,1408C 1378.1,1406.94 1382.43,1405.44 1386.5,1403.5 Z M 1382.5,1418.5 C 1387.54,1417.43 1391.38,1419.1 1394,1423.5C 1394.71,1425.97 1394.37,1428.3 1393,1430.5C 1385.94,1435.09 1378.44,1436.59 1370.5,1435C 1373.21,1428.48 1377.21,1422.98 1382.5,1418.5 Z"/></g>
<g><path style="opacity:0.927" fill="#000000" d="M 1562.5,1403.5 C 1562.5,1409.83 1562.5,1416.17 1562.5,1422.5C 1560.28,1423.2 1558.45,1424.54 1557,1426.5C 1555.77,1431.82 1554.6,1437.15 1553.5,1442.5C 1556.53,1450.6 1559.53,1458.6 1562.5,1466.5C 1562.5,1474.5 1562.5,1482.5 1562.5,1490.5C 1556.93,1487.76 1552.43,1483.76 1549,1478.5C 1542.25,1467.02 1538.42,1454.69 1537.5,1441.5C 1536.98,1430.9 1540.31,1421.74 1547.5,1414C 1551.35,1411.24 1555.02,1408.24 1558.5,1405C 1559.74,1404.21 1561.08,1403.71 1562.5,1403.5 Z"/></g>
</svg>
