<svg xmlns="http://www.w3.org/2000/svg" width="500" viewBox="0 0 375 375" height="500" version="1.0"><defs><clipPath id="b"><path d="M129.855 20.504H242v106.5H129.855Zm0 0"/></clipPath><clipPath id="c"><path d="M128.426 248h115.5v113h-115.5Zm0 0"/></clipPath><clipPath id="e"><path d="M0 0h68v19H0z"/></clipPath><clipPath id="g"><path d="M0 0h68v19H0z"/></clipPath><clipPath id="i"><path d="M0 0h112v19H0z"/></clipPath><clipPath id="k"><path d="M0 0h68v19H0z"/></clipPath><clipPath id="m"><path d="M0 0h68v19H0z"/></clipPath><clipPath id="o"><path d="M0 0h68v19H0z"/></clipPath><clipPath id="q"><path d="M0 0h90v19H0z"/></clipPath><clipPath id="s"><path d="M0 0h102v19H0z"/></clipPath><clipPath id="u"><path d="M0 0h24v20H0z"/></clipPath><clipPath id="w"><path d="M0 0h38v19H0z"/></clipPath><clipPath id="z"><path d="M.559 2H7v12H.559Zm0 0"/></clipPath><clipPath id="y"><path d="M0 0h37v19H0z"/></clipPath><mask id="d"><g filter="url(#a)"><path fill-opacity=".5" d="M-37.5-37.5h450v450h-450z"/></g></mask><mask id="f"><g filter="url(#a)"><path fill-opacity=".5" d="M-37.5-37.5h450v450h-450z"/></g></mask><mask id="h"><g filter="url(#a)"><path fill-opacity=".5" d="M-37.5-37.5h450v450h-450z"/></g></mask><mask id="j"><g filter="url(#a)"><path fill-opacity=".5" d="M-37.5-37.5h450v450h-450z"/></g></mask><mask id="l"><g filter="url(#a)"><path fill-opacity=".5" d="M-37.5-37.5h450v450h-450z"/></g></mask><mask id="n"><g filter="url(#a)"><path fill-opacity=".5" d="M-37.5-37.5h450v450h-450z"/></g></mask><mask id="p"><g filter="url(#a)"><path fill-opacity=".5" d="M-37.5-37.5h450v450h-450z"/></g></mask><mask id="r"><g filter="url(#a)"><path fill-opacity=".5" d="M-37.5-37.5h450v450h-450z"/></g></mask><mask id="t"><g filter="url(#a)"><path fill-opacity=".5" d="M-37.5-37.5h450v450h-450z"/></g></mask><mask id="v"><g filter="url(#a)"><path fill-opacity=".5" d="M-37.5-37.5h450v450h-450z"/></g></mask><mask id="x"><g filter="url(#a)"><path fill-opacity=".5" d="M-37.5-37.5h450v450h-450z"/></g></mask><filter x="0%" y="0%" width="100%" height="100%" id="a"><feColorMatrix values="0 0 0 0 1 0 0 0 0 1 0 0 0 0 1 0 0 0 1 0" color-interpolation-filters="sRGB"/></filter></defs><g clip-path="url(#b)"><path fill="#24afd6" d="M188.957 20.617c16.305-.039 30.902-.113 40.164 8.207 9.484 8.465 13.227 23.25 11.484 39.367.48 16.192-2.816 31.239-11.078 41.922-8.37 10.828-22.34 16.89-37.68 16.89-15.335-.589-29.304-8.687-40.792-19.995-11.633-11.426-20.301-25.547-21.192-41.07 0-15.489 6.153-29.61 17.117-37.633 10.598-7.762 25.676-7.614 41.977-7.688Zm0 0" fill-rule="evenodd"/></g><path fill="#ec9880" d="M242.742 187.84c.086 6.566 1.176 17.945-5.765 28.465-1.211 1.836-4.016 5.703-12.614 11.726-12.922 9.059-23.453 16.434-38.789 16.918-21.949.692-37.039-13.262-38.894-15.031-18.266-17.418-16.91-40.848-16.637-45.578.762-13.149 6.473-22.594 11.918-32 4.96-8.57 8.14-14.063 14.781-17.797 9.13-5.133 18.676-3.492 30.692-1.242 15.96 2.98 28.918 5.246 39.93 16.77.792.831 15.1 16.242 15.378 37.769Zm0 0"/><g clip-path="url(#c)"><path fill="#fadd81" d="M187.152 248.047c15.512-.192 29.418 9.539 39.61 21.254 10.074 11.562 16.511 26.289 16.55 42.351.614 16.106-4.445 30.68-14.097 39.532-9.309 8.586-23.485 11.41-38.961 8.625-15.438-.153-29.535-4.543-40.531-12.594-11.645-8.508-20.149-21.442-21.297-35.942.496-14.46 8.347-27.59 18.847-39.265 10.918-12.133 24.403-23.77 39.88-23.961Zm0 0" fill-rule="evenodd"/></g><g mask="url(#d)"><g clip-path="url(#e)" transform="translate(156 52)"><path d="M3.694 14.39c-.511 0-.918-.152-1.218-.453-.293-.312-.438-.742-.438-1.297V3.125l1.39-.172v9.656c0 .219.036.383.11.485.07.105.195.156.375.156.195 0 .367-.031.516-.094l.36.953c-.337.188-.7.281-1.095.281ZM17.175 10.015c0 .23-.012.465-.031.704h-5.031c.062.875.28 1.523.656 1.937.383.406.875.61 1.469.61.382 0 .734-.055 1.046-.172.32-.114.66-.29 1.016-.532l.594.828c-.844.668-1.766 1-2.766 1-1.094 0-1.95-.359-2.562-1.078-.618-.726-.922-1.722-.922-2.984 0-.813.129-1.535.39-2.172.27-.633.649-1.129 1.141-1.484.5-.364 1.082-.547 1.75-.547 1.05 0 1.852.344 2.406 1.031.563.688.844 1.64.844 2.86Zm-1.36-.406c0-.781-.156-1.375-.468-1.781-.313-.406-.777-.61-1.39-.61-1.137 0-1.75.829-1.844 2.485h3.703ZM35.434 4.062c-.418 0-.719.094-.906.282-.18.187-.266.476-.266.859v1.094h1.922l-.156 1.062h-1.766v6.844h-1.375V7.359H31.48V6.297h1.406V5.219c0-.676.21-1.223.64-1.641.438-.414 1.047-.625 1.829-.625.363 0 .687.031.968.094.29.062.598.168.922.312l-.437 1a3.418 3.418 0 0 0-1.375-.297ZM45.435 6.125c1.113 0 1.977.37 2.594 1.11.613.741.922 1.745.922 3.015 0 .812-.141 1.531-.422 2.156-.281.625-.688 1.117-1.219 1.469-.531.344-1.164.515-1.89.515-1.106 0-1.97-.367-2.594-1.109-.618-.75-.922-1.754-.922-3.016 0-.82.133-1.546.406-2.171.281-.625.688-1.11 1.219-1.454.531-.343 1.164-.515 1.906-.515Zm0 1.11c-1.367 0-2.047 1.01-2.047 3.03 0 2 .676 3 2.031 3 1.364 0 2.047-1.004 2.047-3.015 0-2.008-.68-3.016-2.031-3.016ZM62.296 6.656a4.124 4.124 0 0 1-1 .203 20.84 20.84 0 0 1-1.312.031c.937.43 1.406 1.094 1.406 2 0 .793-.273 1.438-.812 1.938-.543.5-1.278.75-2.204.75-.367 0-.703-.05-1.015-.156a.954.954 0 0 0-.281.328.847.847 0 0 0-.11.406c0 .438.348.656 1.047.656h1.25c.531 0 1 .094 1.406.282.414.187.735.449.953.78.227.333.344.708.344 1.126 0 .77-.32 1.36-.953 1.765-.625.414-1.543.625-2.75.625-.855 0-1.531-.09-2.031-.265-.492-.168-.84-.43-1.047-.781-.211-.344-.313-.793-.313-1.344h1.25c0 .32.055.57.172.75.125.187.336.328.64.422.313.093.755.14 1.329.14.832 0 1.426-.105 1.781-.312.352-.2.532-.5.532-.906 0-.375-.141-.657-.422-.844-.282-.188-.672-.281-1.172-.281h-1.25c-.668 0-1.172-.141-1.516-.422-.344-.29-.515-.649-.515-1.078 0-.258.07-.508.218-.75.157-.239.367-.458.64-.657-.46-.238-.796-.535-1.015-.89-.21-.352-.312-.786-.312-1.297 0-.531.129-1.004.39-1.422.27-.414.633-.738 1.094-.969.469-.238.988-.36 1.563-.36.613.012 1.129-.007 1.547-.062.425-.062.773-.14 1.046-.234a9.6 9.6 0 0 0 1.016-.422Zm-4.015.453c-.524 0-.93.164-1.22.485-.28.324-.421.75-.421 1.28 0 .544.145.977.438 1.298.289.324.703.484 1.234.484.539 0 .953-.156 1.234-.469.282-.312.422-.754.422-1.328 0-1.164-.562-1.75-1.687-1.75Zm0 0"/></g></g><g mask="url(#f)"><g clip-path="url(#g)" transform="translate(161 151)"><path d="M3.606 14.45c-.512 0-.918-.152-1.219-.453-.293-.312-.437-.742-.437-1.297V3.185l1.39-.172v9.656c0 .219.036.383.11.484.07.106.195.157.375.157.195 0 .367-.032.515-.094l.36.953c-.336.187-.7.281-1.094.281ZM17.087 10.075c0 .23-.012.465-.032.703h-5.03c.062.875.28 1.524.655 1.938.383.406.875.61 1.47.61.382 0 .734-.055 1.046-.173.32-.113.66-.289 1.016-.53l.593.827c-.843.668-1.765 1-2.765 1-1.094 0-1.95-.36-2.563-1.078-.617-.726-.922-1.723-.922-2.984 0-.813.13-1.535.391-2.172.27-.633.648-1.13 1.14-1.485.5-.363 1.083-.546 1.75-.546 1.051 0 1.852.343 2.407 1.03.562.688.844 1.641.844 2.86Zm-1.36-.406c0-.781-.156-1.375-.468-1.781-.313-.407-.778-.61-1.391-.61-1.137 0-1.75.828-1.844 2.485h3.703ZM35.345 4.122c-.418 0-.718.094-.906.281-.18.188-.265.477-.265.86v1.093h1.921L35.94 7.42h-1.765v6.844h-1.375V7.419h-1.407V6.356H32.8V5.278c0-.675.21-1.222.64-1.64.438-.414 1.047-.625 1.828-.625.364 0 .688.031.969.093.29.063.598.168.922.313l-.438 1a3.418 3.418 0 0 0-1.375-.297ZM45.347 6.185c1.113 0 1.976.37 2.593 1.109.614.742.922 1.746.922 3.016 0 .812-.14 1.53-.422 2.156-.28.625-.687 1.117-1.218 1.469-.532.343-1.164.515-1.891.515-1.105 0-1.969-.367-2.594-1.11-.617-.75-.922-1.753-.922-3.015 0-.82.133-1.547.407-2.172.28-.625.687-1.109 1.218-1.453.532-.344 1.164-.515 1.907-.515Zm0 1.109c-1.368 0-2.047 1.012-2.047 3.031 0 2 .676 3 2.031 3 1.363 0 2.047-1.004 2.047-3.015 0-2.008-.68-3.016-2.031-3.016ZM62.208 6.716a4.124 4.124 0 0 1-1 .203 20.84 20.84 0 0 1-1.313.031c.938.43 1.407 1.094 1.407 2 0 .793-.274 1.438-.813 1.938-.543.5-1.277.75-2.203.75-.367 0-.703-.051-1.016-.157a.954.954 0 0 0-.28.329.847.847 0 0 0-.11.406c0 .437.347.656 1.047.656h1.25c.53 0 1 .094 1.406.281.414.188.734.45.953.782.227.332.344.707.344 1.125 0 .77-.32 1.359-.953 1.765-.625.414-1.543.625-2.75.625-.856 0-1.532-.09-2.032-.265-.492-.168-.84-.43-1.046-.782-.211-.343-.313-.793-.313-1.343h1.25c0 .32.055.57.172.75.125.187.336.328.64.421.313.094.754.141 1.329.141.832 0 1.425-.105 1.78-.312.352-.2.532-.5.532-.907 0-.375-.14-.656-.422-.843-.281-.188-.672-.282-1.172-.282h-1.25c-.668 0-1.171-.14-1.515-.422-.344-.289-.516-.648-.516-1.078 0-.257.07-.507.219-.75.156-.238.367-.457.64-.656-.46-.238-.796-.535-1.015-.89-.211-.352-.313-.786-.313-1.297 0-.532.13-1.004.391-1.422.27-.414.633-.739 1.094-.969.469-.238.988-.36 1.562-.36.614.012 1.13-.007 1.547-.062.426-.062.774-.14 1.047-.234a9.6 9.6 0 0 0 1.016-.422Zm-4.016.453c-.523 0-.93.164-1.218.484-.282.325-.422.75-.422 1.282 0 .543.144.976.437 1.296.29.325.703.485 1.235.485.539 0 .953-.156 1.234-.469.281-.312.422-.754.422-1.328 0-1.164-.563-1.75-1.688-1.75Zm0 0"/></g></g><g mask="url(#h)"><g clip-path="url(#i)" transform="translate(140 306)"><path d="M5.153 4.131c-.418 0-.719.094-.906.281-.18.188-.266.477-.266.86v1.094h1.922l-.156 1.062H3.981v6.844H2.606V7.428H1.2V6.366h1.406V5.287c0-.675.211-1.222.641-1.64.437-.414 1.047-.625 1.828-.625.363 0 .688.031.969.094.289.062.597.167.922.312l-.438 1a3.418 3.418 0 0 0-1.375-.297ZM15.154 6.194c1.114 0 1.977.37 2.594 1.109.613.742.922 1.746.922 3.016 0 .812-.14 1.53-.422 2.156-.281.625-.687 1.117-1.219 1.469-.53.343-1.164.515-1.89.515-1.106 0-1.969-.367-2.594-1.11-.617-.75-.922-1.753-.922-3.015 0-.82.133-1.547.406-2.172.282-.625.688-1.109 1.22-1.453.53-.343 1.163-.515 1.905-.515Zm0 1.109c-1.367 0-2.046 1.012-2.046 3.031 0 2 .675 3 2.03 3 1.364 0 2.048-1.004 2.048-3.015 0-2.008-.68-3.016-2.032-3.016ZM32.016 6.725a4.124 4.124 0 0 1-1 .203 20.84 20.84 0 0 1-1.313.031c.938.43 1.406 1.094 1.406 2 0 .793-.273 1.438-.812 1.938-.543.5-1.277.75-2.203.75-.367 0-.703-.051-1.016-.156a.954.954 0 0 0-.281.328.847.847 0 0 0-.11.406c0 .437.348.656 1.047.656h1.25c.532 0 1 .094 1.407.281.414.188.734.45.953.782.226.332.344.707.344 1.125 0 .77-.32 1.359-.954 1.765-.625.414-1.543.625-2.75.625-.855 0-1.53-.09-2.03-.265-.493-.168-.84-.43-1.048-.782-.21-.343-.312-.793-.312-1.343h1.25c0 .32.055.57.172.75.125.187.336.328.64.422.313.093.754.14 1.328.14.832 0 1.426-.105 1.782-.312.351-.2.531-.5.531-.907 0-.375-.14-.656-.422-.843-.281-.188-.672-.282-1.172-.282h-1.25c-.668 0-1.172-.14-1.515-.421-.344-.29-.516-.649-.516-1.079 0-.257.07-.507.219-.75.156-.238.367-.457.64-.656-.46-.238-.797-.535-1.015-.89-.211-.352-.313-.786-.313-1.297 0-.532.13-1.004.39-1.422.27-.414.634-.739 1.095-.969.468-.238.988-.36 1.562-.36.613.012 1.129-.007 1.547-.062.426-.062.773-.14 1.047-.234a9.6 9.6 0 0 0 1.015-.422ZM28 7.178c-.523 0-.93.164-1.219.484-.28.325-.422.75-.422 1.282 0 .543.145.976.438 1.297.289.324.703.484 1.234.484.54 0 .953-.156 1.235-.469.281-.312.422-.754.422-1.328 0-1.164-.563-1.75-1.688-1.75ZM83.075 14.46c-.512 0-.918-.153-1.219-.454-.293-.312-.437-.742-.437-1.297V3.194l1.39-.172v9.656c0 .219.036.383.11.484.07.106.195.157.375.157.195 0 .367-.032.515-.094l.36.953c-.336.188-.7.281-1.094.281ZM96.556 10.084c0 .23-.012.465-.032.703h-5.03c.062.875.28 1.524.655 1.938.383.406.875.61 1.47.61.382 0 .734-.055 1.046-.173.32-.113.66-.289 1.016-.53l.593.827c-.843.668-1.765 1-2.765 1-1.094 0-1.95-.36-2.563-1.078-.617-.726-.922-1.723-.922-2.984 0-.813.13-1.535.391-2.172.27-.633.649-1.129 1.14-1.484.5-.364 1.083-.547 1.75-.547 1.051 0 1.852.343 2.407 1.03.562.688.844 1.642.844 2.86Zm-1.36-.406c0-.781-.156-1.375-.468-1.781-.313-.406-.778-.61-1.391-.61-1.137 0-1.75.829-1.844 2.485h3.703Zm0 0"/></g></g><g mask="url(#j)"><g clip-path="url(#k)" transform="translate(170 64)"><path d="M3.67 14.213c-.511 0-.917-.152-1.218-.453-.293-.313-.437-.742-.437-1.297V2.947l1.39-.172v9.657c0 .218.035.383.11.484.07.106.195.156.375.156.195 0 .367-.03.515-.093l.36.953c-.336.187-.7.281-1.094.281ZM17.151 9.838c0 .23-.011.465-.03.703h-5.032c.062.875.281 1.524.656 1.938.383.406.875.609 1.469.609.383 0 .734-.055 1.047-.172.32-.113.66-.289 1.015-.531l.594.828c-.844.668-1.765 1-2.765 1-1.094 0-1.95-.36-2.563-1.078-.617-.727-.922-1.723-.922-2.985 0-.812.129-1.535.39-2.171.27-.633.65-1.13 1.141-1.485.5-.363 1.082-.547 1.75-.547 1.051 0 1.852.344 2.407 1.032.562.687.843 1.64.843 2.859Zm-1.359-.406c0-.782-.156-1.375-.469-1.782-.312-.406-.777-.609-1.39-.609-1.137 0-1.75.828-1.844 2.484h3.703ZM35.41 3.885c-.418 0-.719.094-.906.281-.18.188-.266.477-.266.86v1.093h1.922l-.156 1.063h-1.766v6.843h-1.375V7.182h-1.406V6.119h1.406V5.041c0-.676.211-1.223.64-1.64.438-.415 1.048-.626 1.829-.626.363 0 .687.032.969.094.289.063.597.168.922.313l-.438 1a3.418 3.418 0 0 0-1.375-.297ZM45.411 5.947c1.114 0 1.977.371 2.594 1.11.613.742.922 1.746.922 3.015 0 .813-.14 1.532-.422 2.157-.281.625-.687 1.117-1.219 1.468-.53.344-1.164.516-1.89.516-1.106 0-1.969-.367-2.594-1.11-.617-.75-.922-1.753-.922-3.015 0-.82.133-1.547.406-2.172.282-.625.688-1.11 1.22-1.453.53-.344 1.163-.516 1.905-.516Zm0 1.11c-1.367 0-2.047 1.011-2.047 3.031 0 2 .676 3 2.032 3 1.363 0 2.047-1.004 2.047-3.016 0-2.007-.68-3.015-2.032-3.015ZM62.273 6.479a4.124 4.124 0 0 1-1 .203 20.84 20.84 0 0 1-1.313.031c.938.43 1.406 1.094 1.406 2 0 .793-.273 1.437-.812 1.937-.543.5-1.277.75-2.203.75-.367 0-.703-.05-1.016-.156a.954.954 0 0 0-.281.328.847.847 0 0 0-.11.407c0 .437.348.656 1.047.656h1.25c.532 0 1 .094 1.407.281.414.188.734.45.953.781.226.332.343.707.343 1.125 0 .77-.32 1.36-.953 1.766-.625.414-1.543.625-2.75.625-.855 0-1.53-.09-2.03-.266-.493-.168-.84-.43-1.048-.78-.21-.345-.312-.794-.312-1.345h1.25c0 .32.054.57.172.75.125.188.336.328.64.422.313.094.754.14 1.328.14.832 0 1.426-.105 1.782-.312.351-.199.53-.5.53-.906 0-.375-.14-.656-.421-.844-.281-.187-.672-.28-1.172-.28h-1.25c-.668 0-1.172-.142-1.516-.423-.343-.289-.515-.648-.515-1.078 0-.258.07-.508.219-.75.156-.238.367-.457.64-.656-.46-.238-.797-.535-1.015-.89-.211-.352-.313-.786-.313-1.298 0-.53.129-1.004.39-1.422.27-.414.634-.738 1.094-.968.47-.239.989-.36 1.563-.36.613.012 1.129-.007 1.547-.062.426-.063.773-.14 1.047-.235a9.6 9.6 0 0 0 1.015-.421Zm-4.016.453c-.523 0-.93.164-1.219.484-.281.324-.422.75-.422 1.281 0 .543.145.977.438 1.297.289.324.703.485 1.234.485.54 0 .953-.157 1.235-.47.28-.312.421-.753.421-1.327 0-1.164-.562-1.75-1.687-1.75Zm0 0"/></g></g><g mask="url(#l)"><g clip-path="url(#m)" transform="translate(170 73)"><path d="M3.67 14.14c-.511 0-.917-.152-1.218-.453-.293-.312-.437-.742-.437-1.297V2.875l1.39-.172v9.656c0 .219.035.383.11.485.07.105.195.156.375.156.195 0 .367-.031.515-.094l.36.953c-.336.188-.7.281-1.094.281ZM17.151 9.765c0 .23-.011.465-.03.704h-5.032c.062.875.281 1.523.656 1.937.383.406.875.61 1.469.61.383 0 .734-.055 1.047-.172.32-.114.66-.29 1.015-.532l.594.828c-.844.668-1.765 1-2.765 1-1.094 0-1.95-.359-2.563-1.078-.617-.726-.922-1.722-.922-2.984 0-.813.129-1.535.39-2.172.27-.633.65-1.129 1.141-1.484.5-.364 1.082-.547 1.75-.547 1.051 0 1.852.344 2.407 1.031.562.688.843 1.64.843 2.86Zm-1.359-.406c0-.781-.156-1.375-.469-1.781-.312-.406-.777-.61-1.39-.61-1.137 0-1.75.829-1.844 2.485h3.703ZM35.41 3.812c-.418 0-.719.094-.906.282-.18.187-.266.476-.266.859v1.094h1.922l-.156 1.062h-1.766v6.844h-1.375V7.109h-1.406V6.047h1.406V4.969c0-.676.211-1.223.64-1.641.438-.414 1.048-.625 1.829-.625.363 0 .687.031.969.094.289.062.597.168.922.312l-.438 1a3.418 3.418 0 0 0-1.375-.297ZM45.411 5.875c1.114 0 1.977.37 2.594 1.11.613.741.922 1.745.922 3.015 0 .812-.14 1.531-.422 2.156-.281.625-.687 1.117-1.219 1.469-.53.344-1.164.515-1.89.515-1.106 0-1.969-.367-2.594-1.109-.617-.75-.922-1.754-.922-3.016 0-.82.133-1.546.406-2.171.282-.625.688-1.11 1.22-1.454.53-.343 1.163-.515 1.905-.515Zm0 1.11c-1.367 0-2.047 1.01-2.047 3.03 0 2 .676 3 2.032 3 1.363 0 2.047-1.004 2.047-3.015 0-2.008-.68-3.016-2.032-3.016ZM62.273 6.406a4.124 4.124 0 0 1-1 .203 20.84 20.84 0 0 1-1.313.031c.938.43 1.406 1.094 1.406 2 0 .793-.273 1.438-.812 1.938-.543.5-1.277.75-2.203.75-.367 0-.703-.05-1.016-.156a.954.954 0 0 0-.281.328.847.847 0 0 0-.11.406c0 .438.348.656 1.047.656h1.25c.532 0 1 .094 1.407.282.414.187.734.449.953.78.226.333.343.708.343 1.126 0 .77-.32 1.36-.953 1.765-.625.414-1.543.625-2.75.625-.855 0-1.53-.09-2.03-.265-.493-.168-.84-.43-1.048-.781-.21-.344-.312-.793-.312-1.344h1.25c0 .32.054.57.172.75.125.187.336.328.64.422.313.093.754.14 1.328.14.832 0 1.426-.105 1.782-.312.351-.2.53-.5.53-.906 0-.375-.14-.657-.421-.844-.281-.188-.672-.281-1.172-.281h-1.25c-.668 0-1.172-.141-1.516-.422-.343-.29-.515-.649-.515-1.078 0-.258.07-.508.219-.75.156-.239.367-.458.64-.657-.46-.238-.797-.535-1.015-.89-.211-.352-.313-.786-.313-1.297 0-.531.129-1.004.39-1.422.27-.414.634-.738 1.094-.969.47-.238.989-.36 1.563-.36.613.012 1.129-.007 1.547-.062.426-.062.773-.14 1.047-.234a9.6 9.6 0 0 0 1.015-.422Zm-4.016.453c-.523 0-.93.164-1.219.485-.281.324-.422.75-.422 1.28 0 .544.145.977.438 1.298.289.324.703.484 1.234.484.54 0 .953-.156 1.235-.469.28-.312.421-.754.421-1.328 0-1.164-.562-1.75-1.687-1.75Zm0 0"/></g></g><g mask="url(#n)"><g clip-path="url(#o)" transform="translate(141 195)"><path d="M4.012 13.938c-.511 0-.918-.153-1.218-.454-.293-.312-.438-.742-.438-1.296V2.672l1.39-.172v9.656c0 .219.036.383.11.485.07.105.195.156.375.156.195 0 .367-.031.516-.094l.36.953c-.337.188-.7.282-1.095.282ZM17.493 9.563c0 .23-.012.464-.031.703H12.43c.063.875.282 1.523.657 1.937.383.406.875.61 1.468.61.383 0 .735-.055 1.047-.172.32-.114.66-.29 1.016-.532l.594.829c-.844.667-1.766 1-2.766 1-1.094 0-1.95-.36-2.562-1.079-.618-.726-.922-1.722-.922-2.984 0-.812.129-1.535.39-2.172.27-.633.649-1.129 1.14-1.484.5-.364 1.083-.547 1.75-.547 1.052 0 1.853.344 2.407 1.031.563.688.844 1.64.844 2.86Zm-1.36-.407c0-.781-.156-1.375-.468-1.781-.313-.406-.778-.61-1.39-.61-1.138 0-1.75.829-1.845 2.485h3.704ZM35.752 3.61c-.418 0-.72.093-.907.28-.18.188-.265.477-.265.86v1.094h1.922l-.157 1.062H34.58v6.844h-1.375V6.906h-1.406V5.844h1.406V4.766c0-.676.21-1.223.64-1.641.438-.414 1.047-.625 1.829-.625.363 0 .687.031.968.094.29.062.598.168.922.312l-.437 1a3.418 3.418 0 0 0-1.375-.297ZM45.753 5.672c1.113 0 1.976.371 2.594 1.11.613.741.922 1.745.922 3.015 0 .812-.141 1.531-.422 2.156-.282.625-.688 1.117-1.22 1.469-.53.344-1.163.516-1.89.516-1.105 0-1.968-.368-2.593-1.11-.618-.75-.922-1.754-.922-3.015 0-.82.132-1.547.406-2.172.281-.625.687-1.11 1.219-1.453.53-.344 1.164-.516 1.906-.516Zm0 1.11c-1.367 0-2.047 1.011-2.047 3.03 0 2 .676 3 2.031 3 1.364 0 2.047-1.003 2.047-3.015 0-2.008-.68-3.016-2.031-3.016ZM62.614 6.203a4.124 4.124 0 0 1-1 .203 20.84 20.84 0 0 1-1.312.032c.937.43 1.406 1.093 1.406 2 0 .792-.274 1.437-.813 1.937-.543.5-1.277.75-2.203.75-.367 0-.703-.05-1.015-.156a.954.954 0 0 0-.282.328.847.847 0 0 0-.109.406c0 .438.348.656 1.047.656h1.25c.531 0 1 .094 1.406.282.414.187.735.449.953.78.227.333.344.708.344 1.126 0 .77-.32 1.36-.953 1.766-.625.414-1.543.625-2.75.625-.856 0-1.531-.09-2.031-.266-.493-.168-.84-.43-1.047-.781-.211-.344-.313-.793-.313-1.344h1.25c0 .32.055.57.172.75.125.187.336.328.64.422.313.094.755.14 1.329.14.832 0 1.426-.105 1.781-.312.352-.2.531-.5.531-.906 0-.375-.14-.657-.421-.844-.282-.188-.672-.281-1.172-.281h-1.25c-.668 0-1.172-.141-1.516-.422-.344-.29-.516-.649-.516-1.078 0-.258.07-.508.22-.75.155-.239.366-.457.64-.657-.461-.238-.797-.535-1.016-.89-.21-.352-.312-.785-.312-1.297 0-.531.129-1.004.39-1.422.27-.414.633-.738 1.094-.969.469-.238.988-.36 1.563-.36.613.013 1.128-.007 1.546-.062.426-.062.774-.14 1.047-.234a9.6 9.6 0 0 0 1.016-.422Zm-4.015.453c-.524 0-.93.164-1.22.485-.28.324-.421.75-.421 1.28 0 .544.144.977.437 1.298.29.324.704.484 1.235.484.539 0 .953-.156 1.234-.469.281-.312.422-.754.422-1.328 0-1.164-.562-1.75-1.687-1.75Zm0 0"/></g></g><g mask="url(#p)"><g clip-path="url(#q)" transform="translate(150 288)"><path d="M5.277 3.675c-.418 0-.719.094-.907.281-.18.188-.265.477-.265.86v1.093h1.922L5.87 6.972H4.105v6.843H2.73V6.972H1.324V5.909H2.73V4.831c0-.676.21-1.223.64-1.64.438-.415 1.047-.626 1.829-.626.363 0 .687.032.968.094.29.063.598.168.922.313l-.437 1a3.418 3.418 0 0 0-1.375-.297ZM15.278 5.737c1.113 0 1.977.371 2.594 1.11.613.742.922 1.746.922 3.015 0 .813-.141 1.532-.422 2.157-.282.625-.688 1.117-1.219 1.468-.531.344-1.164.516-1.89.516-1.106 0-1.97-.367-2.594-1.11-.618-.75-.922-1.753-.922-3.015 0-.82.133-1.547.406-2.172.281-.625.687-1.11 1.219-1.453.531-.344 1.164-.516 1.906-.516Zm0 1.11c-1.367 0-2.047 1.011-2.047 3.03 0 2 .676 3 2.031 3 1.364 0 2.047-1.003 2.047-3.015 0-2.007-.68-3.015-2.031-3.015ZM32.14 6.269a4.124 4.124 0 0 1-1 .203 20.84 20.84 0 0 1-1.313.03c.937.43 1.406 1.095 1.406 2 0 .794-.273 1.438-.813 1.938-.543.5-1.277.75-2.203.75-.367 0-.703-.05-1.015-.156a.954.954 0 0 0-.282.328.847.847 0 0 0-.109.407c0 .437.348.656 1.047.656h1.25c.531 0 1 .094 1.406.281.414.188.735.45.953.781.227.332.344.707.344 1.125 0 .77-.32 1.36-.953 1.766-.625.414-1.543.625-2.75.625-.856 0-1.531-.09-2.031-.266-.492-.168-.84-.43-1.047-.78-.211-.345-.313-.794-.313-1.345h1.25c0 .32.055.57.172.75.125.188.336.328.64.422.313.094.755.14 1.329.14.832 0 1.426-.105 1.781-.312.352-.199.531-.5.531-.906 0-.375-.14-.656-.421-.844-.282-.187-.672-.28-1.172-.28h-1.25c-.668 0-1.172-.142-1.516-.423-.344-.289-.516-.648-.516-1.078 0-.258.07-.508.22-.75.155-.238.366-.457.64-.656-.461-.238-.797-.535-1.016-.89-.21-.352-.312-.786-.312-1.298 0-.53.129-1.004.39-1.422.27-.414.633-.738 1.094-.968.469-.239.988-.36 1.563-.36.613.012 1.128-.007 1.546-.062.426-.063.774-.14 1.047-.235a9.6 9.6 0 0 0 1.016-.421Zm-4.016.453c-.524 0-.93.164-1.22.484-.28.324-.421.75-.421 1.281 0 .543.144.977.437 1.297.29.324.704.485 1.235.485.539 0 .953-.157 1.234-.47.281-.312.422-.753.422-1.327 0-1.164-.562-1.75-1.687-1.75ZM83.199 14.003c-.512 0-.918-.152-1.22-.453-.292-.313-.437-.742-.437-1.297V2.737l1.391-.172v9.657c0 .218.035.383.11.484.07.106.195.156.374.156.196 0 .368-.03.516-.093l.36.953c-.337.187-.7.28-1.094.28Zm0 0"/></g></g><g mask="url(#r)"><g clip-path="url(#s)" transform="translate(141 324)"><path d="M5.377 5.93c1.113 0 1.977.372 2.594 1.11.613.742.922 1.746.922 3.016 0 .812-.141 1.531-.422 2.156-.281.625-.688 1.117-1.219 1.469-.531.344-1.164.516-1.89.516-1.106 0-1.97-.368-2.594-1.11-.618-.75-.922-1.754-.922-3.015 0-.82.133-1.547.406-2.172.281-.625.688-1.11 1.219-1.453.531-.344 1.164-.516 1.906-.516Zm0 1.11c-1.367 0-2.047 1.012-2.047 3.032 0 2 .676 3 2.031 3 1.364 0 2.047-1.004 2.047-3.016 0-2.008-.68-3.016-2.031-3.016ZM22.238 6.462a4.124 4.124 0 0 1-1 .203 20.84 20.84 0 0 1-1.312.032c.937.43 1.406 1.093 1.406 2 0 .793-.273 1.437-.812 1.937-.543.5-1.278.75-2.204.75-.367 0-.703-.05-1.015-.156a.954.954 0 0 0-.281.328.847.847 0 0 0-.11.406c0 .438.348.656 1.047.656h1.25c.531 0 1 .094 1.406.282.414.187.735.449.953.78.227.333.344.708.344 1.126 0 .77-.32 1.36-.953 1.766-.625.414-1.543.625-2.75.625-.855 0-1.531-.09-2.031-.266-.492-.168-.84-.43-1.047-.781-.211-.344-.313-.793-.313-1.344h1.25c0 .32.055.57.172.75.125.187.336.328.64.422.313.094.755.14 1.329.14.832 0 1.426-.105 1.781-.312.352-.2.532-.5.532-.906 0-.375-.141-.657-.422-.844-.282-.188-.672-.281-1.172-.281h-1.25c-.668 0-1.172-.141-1.516-.422-.344-.29-.515-.649-.515-1.078 0-.258.07-.508.218-.75.157-.239.367-.457.64-.657-.46-.238-.796-.535-1.015-.89-.21-.352-.312-.785-.312-1.297 0-.531.129-1.004.39-1.422.27-.414.633-.738 1.094-.969.469-.238.988-.36 1.563-.36.613.013 1.129-.007 1.547-.062.425-.062.773-.14 1.046-.234a9.6 9.6 0 0 0 1.016-.422Zm-4.015.453c-.524 0-.93.164-1.22.485-.28.324-.421.75-.421 1.28 0 .544.145.977.438 1.298.289.324.703.484 1.234.484.539 0 .953-.156 1.234-.469.282-.312.422-.753.422-1.328 0-1.164-.562-1.75-1.687-1.75ZM73.303 14.197c-.512 0-.918-.153-1.219-.454-.293-.312-.437-.742-.437-1.296V2.93l1.39-.172v9.656c0 .219.035.383.11.485.07.105.195.156.375.156.195 0 .367-.031.515-.094l.36.953c-.336.188-.7.282-1.094.282ZM86.783 9.822c0 .23-.011.464-.03.703H81.72c.062.875.281 1.523.656 1.937.383.406.875.61 1.469.61.383 0 .734-.055 1.047-.172.32-.114.66-.29 1.015-.532l.594.829c-.844.668-1.765 1-2.765 1-1.094 0-1.95-.36-2.563-1.079-.617-.726-.922-1.722-.922-2.984 0-.812.13-1.535.39-2.172.27-.633.65-1.129 1.141-1.484.5-.363 1.082-.547 1.75-.547 1.051 0 1.852.344 2.407 1.031.562.688.843 1.64.843 2.86Zm-1.359-.407c0-.781-.156-1.375-.469-1.781-.312-.406-.777-.61-1.39-.61-1.137 0-1.75.829-1.844 2.485h3.703Zm0 0"/></g></g><g mask="url(#t)"><g clip-path="url(#u)" transform="translate(201 340)"><path d="M3.43 14.717c-.512 0-.918-.152-1.219-.453-.293-.312-.437-.742-.437-1.297V3.452l1.39-.172v9.656c0 .219.036.383.11.485.07.105.195.156.375.156.195 0 .367-.031.516-.094l.359.953c-.336.188-.7.281-1.094.281ZM16.91 10.342c0 .23-.011.465-.03.704h-5.032c.063.875.282 1.523.657 1.937.382.406.875.61 1.468.61.383 0 .735-.055 1.047-.172.32-.114.66-.29 1.016-.532l.594.828c-.844.668-1.766 1-2.766 1-1.094 0-1.95-.359-2.563-1.078-.617-.726-.921-1.722-.921-2.984 0-.813.128-1.535.39-2.172.27-.633.649-1.129 1.14-1.484.5-.364 1.083-.547 1.75-.547 1.052 0 1.852.344 2.407 1.031.563.688.844 1.64.844 2.86Zm-1.359-.406c0-.781-.156-1.375-.468-1.781-.313-.406-.778-.61-1.391-.61-1.137 0-1.75.829-1.844 2.485h3.703Zm0 0"/></g></g><g mask="url(#v)"><g clip-path="url(#w)" transform="translate(162 269)"><path d="M5.261 4.099c-.418 0-.718.093-.906.281-.18.187-.265.477-.265.86v1.093H6.01l-.156 1.063H4.09v6.843H2.715V7.396H1.308V6.333h1.407V5.255c0-.676.21-1.223.64-1.64.438-.415 1.047-.626 1.828-.626.364 0 .688.032.969.094.29.063.598.168.922.313l-.438 1a3.418 3.418 0 0 0-1.375-.297ZM15.263 6.161c1.113 0 1.976.371 2.593 1.11.614.742.922 1.746.922 3.015 0 .813-.14 1.531-.422 2.156-.28.625-.687 1.118-1.218 1.47-.532.343-1.164.515-1.891.515-1.105 0-1.969-.367-2.594-1.11-.617-.75-.922-1.753-.922-3.015 0-.82.133-1.547.407-2.172.28-.625.687-1.11 1.218-1.453.532-.344 1.164-.516 1.907-.516Zm0 1.11c-1.368 0-2.047 1.011-2.047 3.03 0 2 .676 3 2.031 3 1.363 0 2.047-1.003 2.047-3.015 0-2.008-.68-3.015-2.031-3.015ZM32.124 6.692a4.124 4.124 0 0 1-1 .204 20.84 20.84 0 0 1-1.313.03c.938.43 1.407 1.095 1.407 2 0 .794-.274 1.438-.813 1.938-.543.5-1.277.75-2.203.75-.367 0-.703-.05-1.016-.156a.954.954 0 0 0-.28.328.847.847 0 0 0-.11.406c0 .438.347.657 1.047.657h1.25c.53 0 1 .093 1.406.281.414.187.734.45.953.781.227.332.344.707.344 1.125 0 .77-.32 1.36-.953 1.766-.625.414-1.543.625-2.75.625-.856 0-1.532-.09-2.032-.266-.492-.168-.84-.43-1.047-.781-.21-.344-.312-.793-.312-1.344h1.25c0 .32.055.57.172.75.125.188.336.328.64.422.313.094.754.14 1.329.14.832 0 1.425-.105 1.78-.312.352-.199.532-.5.532-.906 0-.375-.14-.656-.422-.844-.281-.187-.672-.281-1.172-.281h-1.25c-.668 0-1.172-.14-1.515-.422-.344-.289-.516-.648-.516-1.078 0-.258.07-.508.219-.75.156-.238.367-.457.64-.656-.46-.239-.796-.535-1.015-.89-.211-.352-.313-.786-.313-1.298 0-.531.13-1.004.391-1.422.27-.414.633-.738 1.094-.968.468-.239.988-.36 1.562-.36.614.012 1.13-.008 1.547-.062.426-.063.774-.14 1.047-.235a9.6 9.6 0 0 0 1.016-.422Zm-4.016.454c-.523 0-.93.164-1.219.484-.28.324-.421.75-.421 1.281 0 .543.144.977.437 1.297.29.324.703.484 1.234.484.54 0 .954-.156 1.235-.468.281-.313.422-.754.422-1.328 0-1.164-.563-1.75-1.688-1.75Zm0 0"/></g></g><g mask="url(#x)"><g clip-path="url(#y)" transform="translate(172 251)"><g clip-path="url(#z)"><path d="M4.828 3.523c-.418 0-.72.093-.907.28-.18.188-.265.477-.265.86v1.094h1.922L5.42 6.819H3.656v6.844H2.28V6.82H.875V5.757H2.28V4.679c0-.676.21-1.223.64-1.64.438-.415 1.047-.626 1.829-.626.363 0 .687.031.968.094.29.062.598.168.922.312l-.437 1a3.418 3.418 0 0 0-1.375-.296Zm0 0"/></g><path d="M14.829 5.585c1.113 0 1.976.371 2.594 1.11.613.742.922 1.746.922 3.015 0 .813-.141 1.531-.422 2.156-.282.625-.688 1.118-1.22 1.47-.53.343-1.163.515-1.89.515-1.105 0-1.968-.367-2.593-1.11-.618-.75-.922-1.754-.922-3.015 0-.82.132-1.547.406-2.172.281-.625.687-1.11 1.219-1.453.53-.344 1.164-.516 1.906-.516Zm0 1.11c-1.367 0-2.047 1.011-2.047 3.03 0 2 .676 3 2.031 3 1.364 0 2.047-1.003 2.047-3.015 0-2.008-.68-3.016-2.031-3.016ZM31.69 6.116a4.124 4.124 0 0 1-1 .203 20.84 20.84 0 0 1-1.312.032c.937.43 1.406 1.093 1.406 2 0 .793-.274 1.437-.813 1.937-.543.5-1.277.75-2.203.75-.367 0-.703-.05-1.015-.156a.954.954 0 0 0-.282.328.847.847 0 0 0-.109.406c0 .438.348.657 1.047.657h1.25c.531 0 1 .093 1.406.28.414.188.735.45.953.782.227.332.344.707.344 1.125 0 .77-.32 1.36-.953 1.766-.625.414-1.543.625-2.75.625-.856 0-1.531-.09-2.031-.266-.493-.168-.84-.43-1.047-.781-.211-.344-.313-.793-.313-1.344h1.25c0 .32.055.57.172.75.125.188.336.328.64.422.313.094.755.14 1.329.14.832 0 1.426-.105 1.781-.312.352-.2.531-.5.531-.906 0-.375-.14-.656-.421-.844-.282-.187-.672-.281-1.172-.281h-1.25c-.668 0-1.172-.14-1.516-.422-.344-.29-.516-.648-.516-1.078 0-.258.07-.508.22-.75.155-.238.366-.457.64-.656-.461-.239-.797-.536-1.016-.891-.21-.352-.312-.785-.312-1.297 0-.531.129-1.004.39-1.422.27-.414.633-.738 1.094-.969.469-.238.988-.359 1.563-.359.613.012 1.128-.008 1.546-.062.426-.063.774-.141 1.047-.235a9.6 9.6 0 0 0 1.016-.422Zm-4.015.453c-.524 0-.93.165-1.22.485-.28.324-.421.75-.421 1.281 0 .543.144.977.437 1.297.29.324.704.484 1.235.484.539 0 .953-.156 1.234-.468.281-.313.422-.754.422-1.329 0-1.164-.562-1.75-1.687-1.75Zm0 0"/></g></g></svg>